<svg width="192" height="92" viewBox="0 0 192 92" fill="none" xmlns="http://www.w3.org/2000/svg">
<path d="M65.5255 85.293H61.7949V87.0525H65.5255V85.293Z" fill="black" stroke="black" stroke-width="0.705207" stroke-linecap="round" stroke-linejoin="round"/>
<path d="M65.5255 85.293H61.7949V87.0525H65.5255V85.293Z" fill="black"/>
<path d="M64.9962 84.7637H61.2656V86.5232H64.9962V84.7637Z" stroke="white" stroke-width="0.5" stroke-linecap="round" stroke-linejoin="round"/>
<path d="M64.9962 84.7637H61.2656V86.5232H64.9962V84.7637Z" fill="#F1EDD9"/>
<path d="M77.2522 81.6012L74.8545 91.5164H73.4828L71.9878 84.8804L71.9208 84.3198L71.8538 84.8804L70.3658 91.5164H68.9907L66.593 81.6012L66.0605 80.3213H68.7262L68.5922 81.6012L69.6571 86.0793L69.7241 86.7175L69.7911 86.0793L71.1239 80.3213H72.8552L74.188 86.0793L74.255 86.7175L74.322 86.0793L75.3869 81.6012L75.2529 80.3213H77.7846L77.2522 81.6012Z" fill="black" stroke="black" stroke-width="0.705207" stroke-linecap="round" stroke-linejoin="round"/>
<path d="M83.8454 91.5164L84.1099 90.2365V86.5588L83.9794 86.3966H81.7122L81.5817 86.5588V90.2365L81.8461 91.5164H79.3145L79.5824 90.2365V81.6012L79.3145 80.3213H81.8461L81.5817 81.6012V84.3198L81.7122 84.4785H83.9794L84.1099 84.3198V81.6012L83.8454 80.3213H86.3771L86.1091 81.6012V90.2365L86.3771 91.5164H83.8454Z" stroke="black" stroke-width="0.705207" stroke-linecap="round" stroke-linejoin="round"/>
<path d="M89.1738 91.5164L89.4383 90.2365V81.6012L89.1738 80.3213H91.7055L91.4375 81.6012V90.2365L91.7055 91.5164H89.1738Z" stroke="black" stroke-width="0.705207" stroke-linecap="round" stroke-linejoin="round"/>
<path d="M98.3657 91.5164H94.7022L93.9688 88.8754L95.3298 89.4361H97.1669L97.6993 89.1152L97.9673 88.477V87.4368L97.4983 86.8797L95.5026 86.3191L94.2367 84.7993V82.4016L95.968 80.3213H99.4306L100.097 82.719L98.8981 82.2394H97.1669L96.6344 82.5603L96.3664 83.2021V83.8403L96.8354 84.4009L98.8312 84.958L100.097 86.4777V89.4361L98.3657 91.5164Z" fill="black" stroke="black" stroke-width="0.705207" stroke-linecap="round" stroke-linejoin="round"/>
<path d="M107.625 83.8403L109.491 89.9967L110.22 91.5164H107.424L107.29 90.0778L106.091 85.7584H105.89L105.027 86.7986L104.893 87.1195V90.2365L105.161 91.5164H102.629L102.893 90.2365V81.6012L102.629 80.3213H105.161L104.893 81.6012V84.3198L104.826 84.5596L107.558 81.2804L107.823 80.3213H110.287L110.421 80.4835L107.625 83.8403Z" stroke="black" stroke-width="0.705207" stroke-linecap="round" stroke-linejoin="round"/>
<path d="M117.548 91.5164H112.086L112.354 90.2365V81.6012L112.086 80.3213H117.414L118.08 82.719L116.881 82.2394H114.484L114.353 82.4016V84.3198L114.484 84.4785H115.615L116.617 84.08V86.7986L115.615 86.3966H114.484L114.353 86.5588V89.1963L114.551 89.4361H116.881L118.281 88.8754L117.548 91.5164Z" stroke="black" stroke-width="0.705207" stroke-linecap="round" stroke-linejoin="round"/>
<path d="M125.743 81.6012L123.543 86.9573V90.0778L123.945 91.5164H121.145L121.544 90.0778V87.116L119.146 81.6012L118.416 80.3213H121.078L121.212 81.4426L122.478 84.4785L122.545 84.7993L122.612 84.4785L123.878 81.4426L124.008 80.3213H126.473L125.743 81.6012Z" stroke="black" stroke-width="0.705207" stroke-linecap="round" stroke-linejoin="round"/>
<path d="M77.2522 81.6012L74.8545 91.5164H73.4828L71.9878 84.8804L71.9208 84.3198L71.8538 84.8804L70.3658 91.5164H68.9907L66.593 81.6012L66.0605 80.3213H68.7262L68.5922 81.6012L69.6571 86.0793L69.7241 86.7175L69.7911 86.0793L71.1239 80.3213H72.8552L74.188 86.0793L74.255 86.7175L74.322 86.0793L75.3869 81.6012L75.2529 80.3213H77.7846L77.2522 81.6012Z" fill="black"/>
<path d="M83.8454 91.5164L84.1099 90.2365V86.5588L83.9794 86.3966H81.7122L81.5817 86.5588V90.2365L81.8461 91.5164H79.3145L79.5824 90.2365V81.6012L79.3145 80.3213H81.8461L81.5817 81.6012V84.3198L81.7122 84.4785H83.9794L84.1099 84.3198V81.6012L83.8454 80.3213H86.3771L86.1091 81.6012V90.2365L86.3771 91.5164H83.8454Z" fill="black"/>
<path d="M89.1738 91.5164L89.4383 90.2365V81.6012L89.1738 80.3213H91.7055L91.4375 81.6012V90.2365L91.7055 91.5164H89.1738Z" fill="black"/>
<path d="M98.3657 91.5164H94.7022L93.9688 88.8754L95.3298 89.4361H97.1669L97.6993 89.1152L97.9673 88.477V87.4368L97.4983 86.8797L95.5026 86.3191L94.2367 84.7993V82.4016L95.968 80.3213H99.4306L100.097 82.719L98.8981 82.2394H97.1669L96.6344 82.5603L96.3664 83.2021V83.8403L96.8354 84.4009L98.8312 84.958L100.097 86.4777V89.4361L98.3657 91.5164Z" fill="black"/>
<path d="M107.625 83.8403L109.491 89.9967L110.22 91.5164H107.424L107.29 90.0778L106.091 85.7584H105.89L105.027 86.7986L104.893 87.1195V90.2365L105.161 91.5164H102.629L102.893 90.2365V81.6012L102.629 80.3213H105.161L104.893 81.6012V84.3198L104.826 84.5596L107.558 81.2804L107.823 80.3213H110.287L110.421 80.4835L107.625 83.8403Z" fill="black"/>
<path d="M117.548 91.5164H112.086L112.354 90.2365V81.6012L112.086 80.3213H117.414L118.08 82.719L116.881 82.2394H114.484L114.353 82.4016V84.3198L114.484 84.4785H115.615L116.617 84.08V86.7986L115.615 86.3966H114.484L114.353 86.5588V89.1963L114.551 89.4361H116.881L118.281 88.8754L117.548 91.5164Z" fill="black"/>
<path d="M125.743 81.6012L123.543 86.9573V90.0778L123.945 91.5164H121.145L121.544 90.0778V87.116L119.146 81.6012L118.416 80.3213H121.078L121.212 81.4426L122.478 84.4785L122.545 84.7993L122.612 84.4785L123.878 81.4426L124.008 80.3213H126.473L125.743 81.6012Z" fill="black"/>
<path d="M76.7229 81.0719L74.3252 90.9871H72.9535L71.4585 84.3512L71.3915 83.7905L71.3245 84.3512L69.8365 90.9871H68.4614L66.0637 81.0719L65.5312 79.792H68.1969L68.0629 81.0719L69.1278 85.55L69.1948 86.1882L69.2618 85.55L70.5946 79.792H72.3259L73.6588 85.55L73.7257 86.1882L73.7927 85.55L74.8576 81.0719L74.7236 79.792H77.2553L76.7229 81.0719Z" stroke="white" stroke-width="0.5" stroke-linecap="round" stroke-linejoin="round"/>
<path d="M83.3161 90.9871L83.5806 89.7072V86.0295L83.4501 85.8673H81.1829L81.0524 86.0295V89.7072L81.3168 90.9871H78.7852L79.0531 89.7072V81.0719L78.7852 79.792H81.3168L81.0524 81.0719V83.7905L81.1829 83.9492H83.4501L83.5806 83.7905V81.0719L83.3161 79.792H85.8478L85.5798 81.0719V89.7072L85.8478 90.9871H83.3161Z" stroke="white" stroke-width="0.5" stroke-linecap="round" stroke-linejoin="round"/>
<path d="M88.6445 90.9871L88.909 89.7072V81.0719L88.6445 79.792H91.1762L90.9082 81.0719V89.7072L91.1762 90.9871H88.6445Z" stroke="white" stroke-width="0.5" stroke-linecap="round" stroke-linejoin="round"/>
<path d="M97.8364 90.9871H94.1729L93.4395 88.3461L94.8005 88.9068H96.6376L97.17 88.5859L97.438 87.9477V86.9075L96.969 86.3504L94.9733 85.7898L93.7074 84.2701V81.8723L95.4387 79.792H98.9013L99.5677 82.1897L98.3689 81.7101H96.6376L96.1051 82.031L95.8372 82.6728V83.311L96.3061 83.8716L98.3019 84.4287L99.5677 85.9484V88.9068L97.8364 90.9871Z" stroke="white" stroke-width="0.5" stroke-linecap="round" stroke-linejoin="round"/>
<path d="M107.096 83.311L108.961 89.4674L109.691 90.9871H106.895L106.761 89.5485L105.562 85.2291H105.361L104.497 86.2693L104.363 86.5902V89.7072L104.631 90.9871H102.1L102.364 89.7072V81.0719L102.1 79.792H104.631L104.363 81.0719V83.7905L104.296 84.0303L107.029 80.7511L107.293 79.792H109.758L109.892 79.9542L107.096 83.311Z" stroke="white" stroke-width="0.5" stroke-linecap="round" stroke-linejoin="round"/>
<path d="M117.018 90.9871H111.557L111.825 89.7072V81.0719L111.557 79.792H116.884L117.551 82.1897L116.352 81.7101H113.954L113.824 81.8723V83.7905L113.954 83.9492H115.086L116.088 83.5507V86.2693L115.086 85.8673H113.954L113.824 86.0295V88.667L114.021 88.9068H116.352L117.752 88.3461L117.018 90.9871Z" stroke="white" stroke-width="0.5" stroke-linecap="round" stroke-linejoin="round"/>
<path d="M125.214 81.0719L123.014 86.428V89.5485L123.416 90.9871H120.616L121.014 89.5485V86.5867L118.617 81.0719L117.887 79.792H120.549L120.683 80.9133L121.949 83.9492L122.016 84.2701L122.083 83.9492L123.349 80.9133L123.479 79.792H125.944L125.214 81.0719Z" stroke="white" stroke-width="0.5" stroke-linecap="round" stroke-linejoin="round"/>
<path d="M76.7229 81.0719L74.3252 90.9871H72.9535L71.4585 84.3512L71.3915 83.7905L71.3245 84.3512L69.8365 90.9871H68.4614L66.0637 81.0719L65.5312 79.792H68.1969L68.0629 81.0719L69.1278 85.55L69.1948 86.1882L69.2618 85.55L70.5946 79.792H72.3259L73.6588 85.55L73.7257 86.1882L73.7927 85.55L74.8576 81.0719L74.7236 79.792H77.2553L76.7229 81.0719Z" fill="#F1EDD9"/>
<path d="M83.3161 90.9871L83.5806 89.7072V86.0295L83.4501 85.8673H81.1829L81.0524 86.0295V89.7072L81.3168 90.9871H78.7852L79.0531 89.7072V81.0719L78.7852 79.792H81.3168L81.0524 81.0719V83.7905L81.1829 83.9492H83.4501L83.5806 83.7905V81.0719L83.3161 79.792H85.8478L85.5798 81.0719V89.7072L85.8478 90.9871H83.3161Z" fill="#F1EDD9"/>
<path d="M88.6445 90.9871L88.909 89.7072V81.0719L88.6445 79.792H91.1762L90.9082 81.0719V89.7072L91.1762 90.9871H88.6445Z" fill="#F1EDD9"/>
<path d="M97.8364 90.9871H94.1729L93.4395 88.3461L94.8005 88.9068H96.6376L97.17 88.5859L97.438 87.9477V86.9075L96.969 86.3504L94.9733 85.7898L93.7074 84.2701V81.8723L95.4387 79.792H98.9013L99.5677 82.1897L98.3689 81.7101H96.6376L96.1051 82.031L95.8372 82.6728V83.311L96.3061 83.8716L98.3019 84.4287L99.5677 85.9484V88.9068L97.8364 90.9871Z" fill="#F1EDD9"/>
<path d="M107.096 83.311L108.961 89.4674L109.691 90.9871H106.895L106.761 89.5485L105.562 85.2291H105.361L104.497 86.2693L104.363 86.5902V89.7072L104.631 90.9871H102.1L102.364 89.7072V81.0719L102.1 79.792H104.631L104.363 81.0719V83.7905L104.296 84.0303L107.029 80.7511L107.293 79.792H109.758L109.892 79.9542L107.096 83.311Z" fill="#F1EDD9"/>
<path d="M117.018 90.9871H111.557L111.825 89.7072V81.0719L111.557 79.792H116.884L117.551 82.1897L116.352 81.7101H113.954L113.824 81.8723V83.7905L113.954 83.9492H115.086L116.088 83.5507V86.2693L115.086 85.8673H113.954L113.824 86.0295V88.667L114.021 88.9068H116.352L117.752 88.3461L117.018 90.9871Z" fill="#F1EDD9"/>
<path d="M125.214 81.0719L123.014 86.428V89.5485L123.416 90.9871H120.616L121.014 89.5485V86.5867L118.617 81.0719L117.887 79.792H120.549L120.683 80.9133L121.949 83.9492L122.016 84.2701L122.083 83.9492L123.349 80.9133L123.479 79.792H125.944L125.214 81.0719Z" fill="#F1EDD9"/>
<path d="M130.733 85.293H127.002V87.0525H130.733V85.293Z" stroke="black" stroke-width="0.705207" stroke-linecap="round" stroke-linejoin="round"/>
<path d="M130.733 85.293H127.002V87.0525H130.733V85.293Z" fill="black"/>
<path d="M130.203 84.7637H126.473V86.5232H130.203V84.7637Z" stroke="white" stroke-width="0.5" stroke-linecap="round" stroke-linejoin="round"/>
<path d="M130.203 84.7637H126.473V86.5232H130.203V84.7637Z" fill="#F1EDD9"/>
<path d="M14.8628 44.7008C14.7159 44.4514 14.511 44.2411 14.2654 44.0876C14.0199 43.9342 13.7411 43.8421 13.4524 43.8193H13.1562V44.4293H14.0695C14.3582 44.4331 14.6388 44.5254 14.8734 44.6938" fill="#9C9077"/>
<path d="M63.4876 47.0844C63.4148 46.8909 63.2868 46.7229 63.1194 46.6013C62.9521 46.4797 62.7528 46.4099 62.5462 46.4004H62.25V47.0174H63.1668C63.277 47.0192 63.3859 47.0419 63.4876 47.0844Z" fill="#9C9077"/>
<path d="M74.9355 52.8916C75.1659 53.1569 75.4183 53.4023 75.6901 53.625C75.8091 53.6482 75.9268 53.6776 76.0427 53.7132C75.6538 53.472 75.2868 53.1971 74.9461 52.8916" fill="#9C9077"/>
<path d="M87.537 44.5635H86.9199V44.5741H87.537V44.5635Z" fill="#9C9077"/>
<path d="M114.579 49.4999C114.53 49.2425 114.393 48.8828 113.998 48.8828H113.867V49.4999H114.579Z" fill="#9C9077"/>
<path d="M185.551 50.3782L185.382 50.082L185.213 50.1843C185.314 50.2756 185.434 50.342 185.565 50.3782" fill="#9C9077"/>
<path d="M29.4452 43.8195H27.0369L22.7246 53.1282L23.8177 55.4731C24.8473 57.6803 25.8593 59.8489 26.8007 61.8375L26.9629 61.4849C26.1519 59.7713 25.3021 57.9589 24.4347 56.0901L23.3417 53.7453L27.654 44.4295H30.0799V42.6348H29.4452V43.8195Z" fill="black"/>
<path d="M23.9593 44.5102C23.9023 44.3802 23.8236 44.261 23.7265 44.1576C23.6239 44.0526 23.5009 43.9697 23.3651 43.9139C23.2293 43.8581 23.0835 43.8307 22.9367 43.8332H22.6758V44.4291H23.5608C23.6981 44.4298 23.8342 44.4549 23.9628 44.5031" fill="black"/>
<path d="M34.2734 44.5214C34.1936 44.3076 34.0484 44.1244 33.8585 43.9978C33.6686 43.8712 33.4437 43.8077 33.2156 43.8162H32.9512V44.4297H33.8327C33.979 44.4305 34.1238 44.4592 34.2593 44.5143" fill="black"/>
<path d="M20.9123 42.6416H20.2776V43.8193H18.4688C19.5759 46.2664 20.6408 48.583 21.6422 50.7409L21.8044 50.3883C20.937 48.5077 20.0296 46.5261 19.0823 44.4434H20.9123V42.6416Z" fill="black"/>
<path d="M39.7666 42.6455V43.8232H37.3301L26.082 68.1705L26.5298 69.1577L37.9471 44.4403H40.3836V42.6455H39.7666Z" fill="black"/>
<path d="M4.53107 44.6801C4.39257 44.4449 4.20138 44.2451 3.97254 44.0965C3.7437 43.9478 3.48347 43.8543 3.21234 43.8232C3.25222 43.9438 3.27246 44.07 3.27228 44.197C3.26521 44.4123 3.20419 44.6225 3.09481 44.8081C2.98544 44.9937 2.83122 45.1489 2.64628 45.2595C2.46134 45.37 2.25162 45.4323 2.03633 45.4408C1.82104 45.4492 1.60708 45.4034 1.41406 45.3077C1.5236 45.5325 1.69402 45.7221 1.90596 45.8549C2.11789 45.9876 2.36283 46.0583 2.61292 46.0587C2.94575 46.058 3.26518 45.9275 3.50347 45.6952C3.74177 45.4628 3.88017 45.1468 3.88934 44.8141C3.88952 44.6871 3.86928 44.5609 3.8294 44.4403C4.08219 44.4531 4.3264 44.5361 4.5346 44.6801" fill="black"/>
<path d="M20.7895 57.3105L15.7578 68.1707L16.2021 69.1651L21.2373 58.2873C21.0892 57.9593 20.9376 57.6349 20.7895 57.3105Z" fill="black"/>
<path d="M10.5754 42.6416H9.95838V43.8193H8.17773C10.5719 49.1366 13.7277 55.9771 16.4815 61.8303L16.6437 61.4777C14.0027 55.836 11.0585 49.4645 8.79479 44.4364H10.5754V42.6416Z" fill="black"/>
<path d="M46.1874 46.4008H44.1846C44.1317 48.1004 44.107 49.8211 44.1035 51.5312C44.2852 51.6944 44.4956 51.8223 44.7241 51.9085C44.7241 50.2759 44.7523 48.6399 44.8017 47.0179H46.8045V45.1914H46.1874V46.4008Z" fill="black"/>
<path d="M40.39 47.0844C40.3171 46.8909 40.1891 46.7229 40.0218 46.6013C39.8544 46.4797 39.6551 46.4099 39.4485 46.4004H39.1523V47.0174H40.0656C40.177 47.0192 40.287 47.042 40.39 47.0844Z" fill="black"/>
<path d="M53.4619 47.088C53.3902 46.8851 53.2582 46.7088 53.0837 46.5828C52.9092 46.4568 52.7004 46.387 52.4852 46.3828H52.2207V46.9999H53.1022C53.2231 47.0014 53.3427 47.0253 53.4548 47.0704" fill="black"/>
<path d="M46.1868 64.7641H39.1523V65.3847H46.8074V63.5547H46.1868V64.7641Z" fill="black"/>
<path d="M59.223 45.1914V46.4008H57.2308C57.1427 51.3902 57.1462 56.4395 57.2308 61.4217C57.2308 62.0458 57.5094 62.6876 58.0277 62.8745C57.9085 62.612 57.8472 62.327 57.8479 62.0388C57.7527 57.0565 57.7527 52.0072 57.8479 47.0179H59.8436V45.1914H59.223Z" fill="black"/>
<path d="M59.2273 64.7641H52.2246V65.3847H59.8444V63.5547H59.2273V64.7641Z" fill="black"/>
<path d="M53.7061 54.7392C53.7061 54.6511 53.7061 54.5629 53.7061 54.4713C53.1396 54.0527 52.4456 53.8434 51.7421 53.8789C50.8637 53.9182 49.9945 54.0748 49.1575 54.3443C48.2431 54.6326 47.2946 54.7986 46.3367 54.838C45.5452 54.8366 44.7697 54.6144 44.0977 54.1962C44.0977 56.6327 44.1153 59.0621 44.1435 61.4281C44.1435 61.8689 44.3515 62.6658 44.958 62.8808C44.8395 62.6174 44.7725 62.3338 44.7606 62.0452C44.7323 59.6792 44.7041 57.2498 44.7147 54.8133C45.3868 55.2314 46.1622 55.4537 46.9537 55.455C47.9119 55.4177 48.8607 55.2516 49.7746 54.9614C50.6115 54.6918 51.4807 54.5353 52.3591 54.4959C52.8183 54.4919 53.274 54.5744 53.7026 54.7392" fill="black"/>
<path d="M69.286 64.7641H62.248V65.3847H69.9031V63.5547H69.286V64.7641Z" fill="black"/>
<path d="M69.2824 45.1914V46.4008H67.2831C67.1703 51.2174 67.1632 56.1362 67.2655 61.4217C67.2655 61.8766 67.4418 62.6594 68.0588 62.8745C67.945 62.6104 67.885 62.3263 67.8825 62.0388C67.7838 56.7497 67.7873 51.8345 67.9002 47.0179H69.8994V45.1914H69.2824Z" fill="black"/>
<path d="M78.7937 46.0372C77.5948 46.0372 76.3008 46.9152 76.3008 48.3326C76.3008 49.0625 76.6534 49.6937 77.3974 50.2896C77.0894 49.9107 76.9202 49.438 76.9178 48.9497C76.9178 47.5393 78.2119 46.6543 79.4107 46.6543C80.0379 46.6548 80.6511 46.84 81.1738 47.1867C80.8955 46.8186 80.5335 46.5223 80.1177 46.3224C79.7018 46.1225 79.2443 46.0247 78.7831 46.0372" fill="black"/>
<path d="M81.0146 56.2773C80.2046 55.7617 79.3517 55.317 78.4653 54.948C78.0139 54.7435 77.552 54.5319 77.0971 54.3027C77.4527 54.587 77.7405 54.9468 77.94 55.3559C78.1394 55.7651 78.2453 56.2135 78.2502 56.6687C78.2502 58.0544 77.3687 59.1087 76.1063 59.2357C76.0047 59.2373 75.9031 59.229 75.8031 59.211L75.6797 59.8245H76.3849C76.4942 59.845 76.6052 59.8544 76.7163 59.8527C77.9787 59.7258 78.8602 58.6715 78.8602 57.2858C78.8561 56.8305 78.7504 56.3818 78.551 55.9725C78.3515 55.5632 78.0632 55.2036 77.7072 54.9198C78.162 55.1525 78.6239 55.3605 79.0753 55.565C79.9617 55.934 80.8146 56.3788 81.6246 56.8944C81.748 56.9825 81.8608 57.0742 81.9772 57.1659C81.6983 56.8272 81.3744 56.5282 81.0146 56.2773Z" fill="black"/>
<path d="M84.583 54.5664C85.5308 55.632 86.0354 57.0196 85.9934 58.445C85.9194 62.7962 81.801 65.1445 77.9647 65.1445C75.8522 65.1551 73.8067 64.404 72.2031 63.0289C73.7264 64.7919 76.184 65.758 78.5817 65.758C82.418 65.758 86.5365 63.4132 86.6105 59.0586C86.631 58.2072 86.4594 57.3622 86.1084 56.5863C85.7574 55.8104 85.236 55.1236 84.583 54.577" fill="black"/>
<path d="M83.3492 49.8421H82.168V50.4626H83.9662V44.5283H83.3492V49.8421Z" fill="black"/>
<path d="M74.0366 61.9824C73.5196 61.3484 73.2391 60.5544 73.2432 59.7363C73.2432 58.7596 73.7757 57.7723 74.8441 57.7723C74.9643 57.7741 75.0834 57.7955 75.1967 57.8358C75.1235 57.6358 74.9905 57.4631 74.8157 57.3414C74.641 57.2196 74.4329 57.1546 74.22 57.1553C73.1621 57.1553 72.6191 58.1426 72.6191 59.1193C72.6186 59.6728 72.7455 60.219 72.9901 60.7155C73.2347 61.212 73.5904 61.6455 74.0296 61.9824" fill="black"/>
<path d="M91.0571 47.0175V46.7354V46.3828H89.6714C88.335 46.3828 86.914 47.1973 86.914 48.7135V49.856H85.7363V50.4765H87.5558V49.3271C87.5558 47.8179 88.9662 46.9999 90.3131 46.9999L91.0571 47.0175Z" fill="black"/>
<path d="M96.0171 46.4002H94.6808V46.7105C94.6808 48.001 94.6561 49.2809 94.6314 50.5679C94.6067 51.8549 94.582 53.1455 94.582 54.4466C94.582 56.7596 94.6138 59.1432 94.649 61.4528C94.649 61.9641 94.9029 62.6975 95.4671 62.902C95.346 62.6405 95.2777 62.3578 95.2661 62.0699C95.2343 59.7603 95.1991 57.3767 95.1991 55.0636C95.1991 53.7555 95.2238 52.4649 95.2485 51.185C95.2731 49.905 95.2978 48.618 95.2978 47.3275V47.0172H96.6342C97.2775 47.0186 97.9059 47.2113 98.4395 47.5708C98.1572 47.1979 97.7904 46.8973 97.3693 46.6938C96.9482 46.4903 96.4847 46.3896 96.0171 46.4002Z" fill="black"/>
<path d="M96.6808 64.7646H89.6816V65.3852H97.3014V63.5869H96.6808V64.7646Z" fill="black"/>
<path d="M100.587 44.5635V49.8772H99.4414V50.4943H101.204V44.5635H100.587Z" fill="black"/>
<path d="M114.494 59.0732H114.406C114.271 59.0826 114.139 59.1186 114.018 59.1791C113.897 59.2396 113.789 59.3235 113.701 59.4258L113.281 59.8878C113.331 59.9477 113.373 60.0112 113.426 60.0641L113.884 60.5224L114.318 60.0429C114.406 59.9405 114.514 59.8567 114.635 59.7962C114.756 59.7356 114.888 59.6997 115.023 59.6903H115.111C115.213 59.6915 115.315 59.7094 115.411 59.7432C115.348 59.549 115.226 59.3797 115.061 59.2593C114.897 59.139 114.698 59.0738 114.494 59.0732Z" fill="black"/>
<path d="M117.219 55.3145H116.602V55.7129C116.821 55.8168 117.028 55.9445 117.219 56.0937V55.3145Z" fill="black"/>
<path d="M117.229 50.1175C117.229 51.0484 116.753 51.7959 116.33 52.4588C115.978 53.0194 115.625 53.5448 115.625 54.0878C115.625 54.2465 115.678 54.6978 115.904 54.6978H116.256C116.256 54.1583 116.591 53.64 116.944 53.0758C117.363 52.4129 117.843 51.6654 117.843 50.7381C117.843 50.3139 117.742 49.8957 117.55 49.5177C117.357 49.1396 117.079 48.8124 116.736 48.5625C117.056 49.0177 117.227 49.5609 117.226 50.1175" fill="black"/>
<path d="M109.29 46.3691H107.301C107.188 51.2103 107.181 56.1397 107.28 61.4217C107.282 61.7023 107.36 61.9772 107.504 62.2177C107.649 62.4583 107.855 62.6558 108.102 62.7898C107.971 62.5608 107.901 62.3024 107.897 62.0388C107.798 56.7497 107.805 51.8133 107.918 46.9862H109.918V45.1914H109.3L109.29 46.3691Z" fill="black"/>
<path d="M118.2 57.0141C118.089 56.9108 117.972 56.8154 117.847 56.7285C118.355 57.4006 118.621 58.2243 118.602 59.0663C118.563 63.227 114.371 65.1275 110.475 65.1275C109.57 65.1117 108.67 64.9934 107.791 64.7749H102.287V65.392H108.426C109.304 65.6104 110.204 65.7287 111.109 65.7446C114.988 65.7446 119.201 63.8441 119.237 59.6833C119.248 59.1921 119.163 58.7034 118.985 58.2453C118.807 57.7872 118.54 57.3688 118.2 57.0141Z" fill="black"/>
<path d="M103.518 47.0597C103.444 46.8602 103.313 46.687 103.141 46.5615C102.969 46.4361 102.764 46.3641 102.552 46.3545H102.287V46.9715H103.169C103.29 46.9736 103.409 46.9987 103.521 47.0456" fill="black"/>
<path d="M135.227 50.0713C135.717 50.571 135.99 51.2436 135.988 51.9436C135.953 53.6291 134.55 54.842 132.66 54.842C131.369 54.842 130.265 54.2673 129.201 53.7137C128.22 53.2059 127.297 52.7229 126.306 52.7229C125.958 52.7184 125.611 52.7757 125.283 52.8921C125.283 55.7129 125.318 58.5867 125.382 61.4427C125.371 61.7226 125.439 61.9999 125.579 62.2426C125.719 62.4853 125.924 62.6835 126.172 62.8144C126.052 62.5808 125.989 62.3222 125.988 62.0598C125.925 59.2037 125.893 56.33 125.89 53.5092C126.228 53.3839 126.587 53.3218 126.947 53.3258C127.935 53.3258 128.859 53.8089 129.839 54.3166C130.897 54.8702 132.007 55.445 133.298 55.445C135.188 55.445 136.591 54.232 136.63 52.543C136.626 52.1535 136.541 51.769 136.378 51.4148C136.216 51.0606 135.981 50.7446 135.689 50.4874L135.23 50.0713H135.227Z" fill="black"/>
<path d="M134.625 59.0727C134.488 59.0701 134.352 59.1009 134.229 59.1623C134.106 59.2237 134 59.3139 133.92 59.4253L133.5 59.9824C133.539 60.0247 133.567 60.067 133.606 60.1094L134.11 60.6101L134.537 60.0424C134.617 59.931 134.723 59.8407 134.846 59.7793C134.969 59.7179 135.105 59.6872 135.242 59.6898C135.363 59.693 135.482 59.7181 135.594 59.7638C135.524 59.5641 135.395 59.3902 135.225 59.2644C135.055 59.1387 134.85 59.067 134.639 59.0586" fill="black"/>
<path d="M121.578 47.0809C121.506 46.8901 121.38 46.7243 121.215 46.6036C121.051 46.4828 120.855 46.4123 120.651 46.4004H120.348V47.0174H121.261C121.367 47.0205 121.472 47.042 121.571 47.0809" fill="black"/>
<path d="M137.978 56.7246C138.496 57.4011 138.774 58.2312 138.768 59.0835C138.768 61.0722 137.459 62.867 135.182 64.0023C133.651 64.771 131.86 65.1272 129.54 65.1272C128.266 65.1255 126.995 65.0075 125.742 64.7745H120.348V65.3916H126.367C127.618 65.6247 128.888 65.7427 130.161 65.7442C132.474 65.7442 134.265 65.3916 135.802 64.6194C138.08 63.4699 139.388 61.7069 139.388 59.7041C139.397 59.1326 139.275 58.5667 139.03 58.0501C138.785 57.5335 138.425 57.08 137.978 56.7246Z" fill="black"/>
<path d="M134.701 48.8159H133.523V49.4365H135.318V44.5635H134.701V48.8159Z" fill="black"/>
<path d="M131.205 46.4004H125.383C125.337 47.9236 125.291 49.3905 125.277 50.8855C125.482 50.8027 125.693 50.7355 125.908 50.6845C125.93 49.4716 125.961 48.2621 126 47.0174H131.822C132.161 47.0227 132.494 47.1072 132.795 47.2643C132.523 46.6754 131.776 46.4004 131.205 46.4004Z" fill="black"/>
<path d="M147.914 43.5901C147.008 43.5852 146.103 43.6595 145.21 43.8122C145.157 46.3792 145.125 48.8756 145.107 51.3156C145.292 51.0893 145.504 50.8867 145.739 50.7127C145.739 48.657 145.784 46.5731 145.83 44.4293C146.722 44.2766 147.626 44.2022 148.531 44.2071C151.017 44.2071 153.517 44.9617 155.206 46.4285C153.552 44.5562 150.728 43.5901 147.914 43.5901Z" fill="black"/>
<path d="M149.261 54.0874L149.525 54.6163L150.061 54.3766C150.332 54.2543 150.561 54.0557 150.72 53.8051C150.879 53.5545 150.961 53.2629 150.957 52.9661C150.954 52.6146 150.864 52.2692 150.694 51.9614C150.524 51.6536 150.28 51.393 149.984 51.2031C150.215 51.5393 150.338 51.9378 150.336 52.3456C150.34 52.6423 150.258 52.9337 150.099 53.1841C149.94 53.4346 149.711 53.6333 149.441 53.756L149.109 53.9041C149.17 53.9542 149.22 54.0152 149.257 54.0839" fill="black"/>
<path d="M145.104 56.083C145.104 57.8919 145.125 61.3403 145.156 63.1174C145.156 63.6322 145.41 64.3657 145.978 64.5702C145.855 64.3081 145.785 64.0239 145.773 63.7345C145.745 61.9715 145.728 58.5689 145.721 56.7882C145.49 56.5761 145.283 56.3397 145.104 56.083Z" fill="black"/>
<path d="M158.534 45.4629C159.737 46.8026 160.394 48.5455 160.374 50.3464C160.388 51.3338 160.201 52.3137 159.827 53.2274C159.453 54.1411 158.897 54.9697 158.195 55.6637C156.383 57.4902 153.579 58.5762 150.692 58.5762C148.991 58.6123 147.33 58.0647 145.984 57.0248C147.183 58.4352 149.249 59.1933 151.312 59.1933C154.197 59.1933 157 58.1072 158.812 56.2808C159.515 55.5868 160.07 54.7581 160.444 53.8444C160.819 52.9307 161.005 51.9509 160.991 50.9635C161.001 49.9228 160.786 48.8923 160.36 47.9427C159.934 46.9932 159.307 46.1472 158.523 45.4629" fill="black"/>
<path d="M147.208 66.2203L140.174 69.1574V70.0319L147.825 66.8373V65.2471H147.208V66.2203Z" fill="black"/>
<path d="M148.059 56.0334C147.827 55.6793 147.711 55.2613 147.728 54.838C147.728 54.3938 147.978 53.7344 148.666 53.7344C148.71 53.7368 148.753 53.7427 148.796 53.752L148.655 53.4699C148.596 53.3611 148.508 53.2706 148.401 53.2084C148.294 53.1462 148.172 53.1147 148.049 53.1173C147.343 53.1173 147.107 53.7767 147.107 54.221C147.096 54.5007 147.143 54.7798 147.245 55.0403C147.348 55.3007 147.504 55.5369 147.703 55.7336C147.812 55.8436 147.93 55.9439 148.056 56.0334" fill="black"/>
<path d="M141.108 44.7822C141.109 44.6626 141.091 44.5435 141.055 44.4296H141.086C141.194 44.4304 141.3 44.4507 141.4 44.4895C141.33 44.2968 141.204 44.1294 141.038 44.0088C140.872 43.8882 140.674 43.8198 140.469 43.8125H140.445C140.481 43.9264 140.499 44.0455 140.498 44.1651C140.498 44.4985 140.368 44.8189 140.135 45.0579C139.903 45.297 139.586 45.4359 139.253 45.4451C139.049 45.446 138.847 45.3989 138.664 45.3075C138.773 45.5344 138.945 45.7256 139.158 45.8592C139.371 45.9927 139.618 46.0631 139.87 46.0621C140.203 46.0529 140.519 45.9145 140.751 45.6762C140.983 45.438 141.114 45.1185 141.115 44.7857" fill="black"/>
<path d="M163.513 47.0844C163.44 46.8909 163.312 46.7229 163.145 46.6013C162.977 46.4797 162.778 46.4099 162.572 46.4004H162.275V47.0174H163.189C163.3 47.0188 163.41 47.0416 163.513 47.0844Z" fill="black"/>
<path d="M169.31 64.7641H162.275V65.3847H169.93V63.5547H169.31V64.7641Z" fill="black"/>
<path d="M169.31 45.1914V46.4008H167.31C167.198 51.2174 167.191 56.1362 167.293 61.4217C167.293 61.8766 167.469 62.6594 168.086 62.8745C167.972 62.6104 167.912 62.3263 167.91 62.0388C167.808 56.7497 167.815 51.8345 167.927 47.0179H169.927V45.1914H169.31Z" fill="black"/>
<path d="M176.728 61.4074C175.273 59.7203 174.479 57.5632 174.492 55.3356C174.492 51.1749 177.436 46.6862 182.249 46.6862C183.597 46.66 184.91 47.1094 185.959 47.9556C185.909 47.8992 185.871 47.8392 185.814 47.7793C185.273 47.2215 184.622 46.7829 183.902 46.4914C183.182 46.2 182.409 46.0621 181.632 46.0868C176.819 46.0868 173.875 50.5754 173.875 54.7362C173.875 57.2044 174.859 59.7819 176.728 61.4356" fill="black"/>
<path d="M189.43 50.5508C189.388 52.2433 188.182 53.9781 186.232 53.9781C185.596 53.9819 184.977 53.7776 184.469 53.3963C184.738 53.7704 185.093 54.0744 185.504 54.283C185.915 54.4916 186.37 54.5986 186.831 54.5952C188.781 54.5952 190.005 52.8604 190.029 51.1679C190.019 50.369 189.838 49.5815 189.5 48.8575C189.162 48.1335 188.674 47.4896 188.069 46.9684C188.044 46.9437 188.012 46.926 187.988 46.9014C188.887 47.9053 189.389 49.2031 189.398 50.5508" fill="black"/>
<path d="M184.64 57.3203H184.344V57.9374H185.257C185.368 57.9394 185.478 57.9609 185.581 58.0008C185.508 57.8079 185.38 57.6407 185.212 57.5198C185.045 57.3989 184.846 57.3295 184.64 57.3203Z" fill="black"/>
<path d="M185.694 64.7645L185.719 63.8936C184.297 64.6893 182.697 65.1138 181.068 65.1277C178.235 65.1587 175.494 64.127 173.385 62.2363C174.453 63.3643 175.743 64.2585 177.174 64.8624C178.605 65.4663 180.146 65.7667 181.699 65.7447C183.141 65.7351 184.562 65.4 185.856 64.7645H185.694Z" fill="black"/>
<path d="M191.379 56.1399V57.3211H189.369C189.369 57.6737 189.369 58.0051 189.369 58.3577C189.314 59.4266 189.314 60.4976 189.369 61.5664C189.398 61.986 189.606 62.6877 190.163 62.8816C190.064 62.6584 190.004 62.4198 189.986 62.1764C189.937 61.7463 189.941 60.6144 189.986 58.9677C189.986 58.6151 189.986 58.2625 189.986 57.9311H191.996V56.1328L191.379 56.1399Z" fill="black"/>
<path d="M191.383 64.7641H186.331L186.316 65.3847H192V63.5547H191.383V64.7641Z" fill="black"/>
<path d="M39.15 41.4082H31.7453V43.203H32.6233C33.4308 43.203 33.7939 43.88 33.7939 44.5041C33.7908 44.7128 33.7427 44.9185 33.6529 45.107L26.2024 61.2175C25.261 59.2323 24.249 57.0638 23.2194 54.8706L22.1263 52.5258L26.4386 43.2171H28.8469V41.4223H21.4423V43.2171H22.3238C22.4706 43.2145 22.6163 43.242 22.7521 43.2978C22.8879 43.3536 23.0109 43.4365 23.1136 43.5415C23.2341 43.6728 23.3273 43.8268 23.3878 43.9945C23.4483 44.1621 23.475 44.3401 23.4662 44.5182C23.478 44.725 23.4405 44.9316 23.3569 45.1211L21.0368 50.1387C20.0318 47.9807 18.967 45.6606 17.8633 43.2171H19.6722V41.4223H11.9149V43.2171H12.8282C13.826 43.2171 14.4008 44.2749 14.5524 44.6275L15.7759 47.2438C16.8126 49.4581 17.9444 51.8805 19.0657 54.3276L15.8676 61.2421C13.1138 55.3889 9.95797 48.5484 7.56379 43.2312H9.34444V41.4364H2.20422C1.14641 41.4364 0.000449557 42.1416 0.000449557 43.4075C-0.00423565 43.593 0.0277396 43.7776 0.0945402 43.9508C0.161341 44.1239 0.261653 44.2822 0.38973 44.4165C0.517808 44.5508 0.671131 44.6585 0.840912 44.7334C1.01069 44.8083 1.19359 44.849 1.37913 44.8531C1.71196 44.8524 2.0314 44.7219 2.26969 44.4896C2.50798 44.2572 2.64638 43.9412 2.65555 43.6085C2.65543 43.4815 2.6352 43.3553 2.59561 43.2347C3.5018 43.2735 4.03423 44.2184 4.22816 44.6451C6.92558 50.3714 11.2132 59.592 14.4113 66.7357L14.9649 67.9733L20.1729 56.7359C21.3506 59.2781 22.5142 61.8416 23.5579 64.1405L25.2962 67.9592L36.71 43.2417H39.15V41.4082Z" fill="#866332"/>
<path d="M50.9874 45.7831H51.8689C52.7046 45.7831 53.0078 46.6435 53.0078 47.2288C53.029 48.4065 53.0572 49.8028 53.0678 51.2097C52.3984 50.7977 51.6289 50.577 50.8428 50.5715C49.8702 50.6104 48.9071 50.78 47.9797 51.0757C47.1711 51.3362 46.3318 51.4892 45.4833 51.5306C45.0672 51.5306 44.0728 51.4671 43.4875 50.9135C43.4875 49.2034 43.5157 47.4827 43.5686 45.7831H45.5714V43.9531H37.9199V45.7831H38.8332C39.5384 45.7831 39.9368 46.513 39.9368 47.2288C40.025 51.7598 40.0179 56.6997 39.9157 62.3167H37.9199V64.1467H45.5714V62.3167H44.6582C43.7943 62.3167 43.5369 61.3224 43.5193 60.8076C43.4946 58.4451 43.4664 56.0157 43.4769 53.5792C44.149 53.9973 44.9245 54.2196 45.716 54.2209C46.6741 54.1833 47.6228 54.0173 48.5368 53.7273C49.3738 53.4577 50.243 53.3012 51.1214 53.2619C51.8255 53.2259 52.52 53.4366 53.0854 53.8578C53.0854 56.6997 53.0536 59.4782 52.9972 62.3202H50.998V64.1502H58.6072V62.3202H57.7256C57.0204 62.3202 56.622 61.548 56.622 60.8076C56.5268 55.8253 56.5233 50.776 56.622 45.7867H58.6177V43.9567H50.9874V45.7831Z" fill="#866332"/>
<path d="M61.0145 45.7831H61.9277C62.6329 45.7831 63.0314 46.513 63.0314 47.2288C63.1336 52.5179 63.0948 57.7893 63.0314 62.3167H61.0039V64.1467H68.6554V62.3167H67.7739C66.8747 62.3167 66.6385 61.3365 66.6385 60.804C66.5362 55.515 66.5433 50.5997 66.6561 45.7831H68.6554V43.9531H61.0039L61.0145 45.7831Z" fill="#866332"/>
<path d="M82.4065 52.6203C81.56 52.1119 80.6773 51.6664 79.7655 51.2875C78.9142 50.9317 78.0894 50.5158 77.2973 50.0428C76.2042 49.3376 75.6929 48.5971 75.6929 47.7156C75.6929 46.3052 76.9905 45.4201 78.1893 45.4201C79.5257 45.4201 80.9467 46.2347 80.9467 47.7473V49.2247H82.7415V43.2939H80.9467V44.0203C80.1382 43.7206 79.2807 43.5747 78.4185 43.5901C75.5695 43.5901 72.5406 45.3532 72.5406 48.5759C72.5406 50.3742 73.5138 51.8904 75.4285 53.0893C75.0418 52.9553 74.6353 52.8873 74.2261 52.8883H74.1556C73.5427 52.887 72.9357 53.0087 72.3706 53.2461C71.8056 53.4835 71.2939 53.8319 70.8658 54.2705C70.4117 54.7339 70.0533 55.2823 69.8113 55.8843C69.5693 56.4863 69.4484 57.1301 69.4554 57.7789C69.4906 61.9925 73.4962 64.5101 77.3501 64.5101C81.2041 64.5101 85.3049 62.1653 85.3789 57.8106C85.4107 55.6633 84.3881 53.865 82.41 52.6168L82.4065 52.6203ZM73.6126 56.5342C73.877 56.5311 74.1325 56.6302 74.3256 56.8109C74.5188 56.9915 74.6347 57.2398 74.6492 57.5039C74.6395 57.6224 74.6218 57.7402 74.5963 57.8565L74.4482 58.5969H75.1534C75.2629 58.6155 75.3738 58.625 75.4849 58.6251C76.7472 58.4982 77.6287 57.4439 77.6287 56.0582C77.6244 55.6029 77.5186 55.1544 77.3192 54.7451C77.1197 54.3358 76.8316 53.9762 76.4757 53.6922C76.9305 53.9214 77.3925 54.133 77.8438 54.3375C78.7302 54.7065 79.5831 55.1512 80.3931 55.6668C81.5532 56.4989 82.1173 57.4686 82.1173 58.6322C82.0891 61.1498 79.6703 62.6554 77.3431 62.6554C74.755 62.6554 72.0047 61.2027 72.0047 58.5088C72.0047 57.5321 72.5336 56.5448 73.6055 56.5448" fill="#866332"/>
<path d="M98.2084 43.9431H86.3045V43.3154H84.5098V49.2462H86.3045V48.1003C86.3045 46.5911 87.7149 45.7731 89.0619 45.7731H90.4194V46.1257C90.5005 48.1743 90.4935 50.1665 90.4899 52.2751V53.8442C90.4899 56.1467 90.4899 58.5338 90.4229 60.9562C90.4229 61.4146 90.4229 61.8835 90.4229 62.3666H88.4483V64.1613H96.0681V62.3666H95.1866C94.3897 62.3666 94.0689 61.4569 94.0512 60.8539C94.0195 58.5479 93.9842 56.1643 93.9842 53.8512C93.9842 52.5431 94.0089 51.2525 94.0336 49.9726C94.0583 48.6926 94.083 47.4056 94.083 46.1151V45.8048H95.4193C96.7909 45.8048 98.2119 46.6757 98.2119 48.132V49.278H99.975V43.326H98.2119L98.2084 43.9431Z" fill="#866332"/>
<path d="M115.983 55.0893V54.0808H115.302C115.077 54.0808 115.024 53.6295 115.024 53.4708C115.024 52.9278 115.376 52.413 115.729 51.8418C116.148 51.1789 116.628 50.4314 116.628 49.5005C116.621 49.1279 116.54 48.7605 116.39 48.4194C116.239 48.0783 116.023 47.7703 115.753 47.5133C115.484 47.2563 115.165 47.0552 114.818 46.9218C114.47 46.7884 114.099 46.7253 113.726 46.7361C113.531 46.7306 113.336 46.7447 113.144 46.7784L112.647 46.8771V48.2664H113.395C113.998 48.2664 114.005 49.1021 114.005 49.1373C113.941 49.7074 113.739 50.2533 113.416 50.7275C112.99 51.3808 112.737 52.1321 112.682 52.9102C112.68 53.3034 112.765 53.6923 112.931 54.049C113.097 54.4056 113.339 54.7211 113.641 54.9729C113.088 55.1219 112.599 55.4467 112.247 55.8983C111.894 56.3498 111.698 56.9037 111.688 57.4764C111.678 57.7259 111.718 57.9749 111.806 58.2087C111.894 58.4424 112.028 58.6562 112.199 58.8374L112.658 59.2958L113.091 58.8163C113.18 58.7139 113.288 58.63 113.409 58.5695C113.53 58.509 113.662 58.473 113.797 58.4637H113.885C114.014 58.4646 114.141 58.491 114.26 58.5413C114.379 58.5917 114.487 58.6649 114.577 58.757C114.668 58.8491 114.739 58.958 114.787 59.0777C114.835 59.1974 114.859 59.3255 114.858 59.4545C114.882 59.7889 114.836 60.1246 114.723 60.4403C114.61 60.756 114.433 61.0447 114.202 61.288C113.377 62.1519 111.692 62.6632 109.587 62.6984C109.29 62.6984 106.692 62.6455 106.66 60.8226C106.561 55.5335 106.568 50.5971 106.66 45.7699H108.659V43.9717H101.043V45.7699H101.924C102.63 45.7699 103.06 46.5139 103.06 47.2438C103.13 52.6492 103.123 57.5927 103.039 62.3353H101.043V64.1653H107.182C108.06 64.3839 108.96 64.5022 109.865 64.5179C113.744 64.5179 117.957 62.6173 117.993 58.4566C118.005 57.9653 117.92 57.4763 117.742 57.0182C117.564 56.56 117.297 56.1417 116.956 55.7874C116.676 55.4918 116.342 55.2524 115.972 55.0822" fill="#866332"/>
<path d="M134.822 54.8069C133.412 54.8069 131.881 55.8048 131.79 57.5079C131.789 57.7626 131.84 58.0148 131.939 58.2493C132.039 58.4839 132.184 58.6958 132.368 58.8724L132.872 59.3767L133.299 58.8055C133.379 58.6939 133.485 58.6034 133.608 58.542C133.731 58.4806 133.867 58.45 134.004 58.4529C134.273 58.4599 134.529 58.5691 134.721 58.7585C134.912 58.9478 135.024 59.2029 135.034 59.4719C135.055 60.2406 134.536 60.9317 133.415 61.6404C132.188 62.3703 130.661 62.6982 128.592 62.6982H128.306C125.133 62.6982 124.78 61.6404 124.752 60.8153C124.688 57.9592 124.657 55.0855 124.653 52.2647C124.985 52.1418 125.336 52.0797 125.69 52.0813C126.68 52.0813 127.604 52.5644 128.585 53.0721C129.642 53.6257 130.753 54.2005 132.044 54.2005C133.934 54.2005 135.337 52.9875 135.372 51.2985C135.369 50.909 135.283 50.5245 135.121 50.1703C134.958 49.8161 134.723 49.5001 134.431 49.2429L133.997 48.8056L132.939 49.8634L133.376 50.3007C133.404 50.324 133.421 50.3567 133.426 50.3923C133.426 51.0447 132.721 51.3973 132.068 51.3973C131.169 51.3199 130.291 51.081 129.477 50.6921C128.493 50.3042 127.477 49.9022 126.335 49.9022C125.764 49.8987 125.198 50.009 124.671 50.2266C124.671 48.7351 124.731 47.2648 124.78 45.7415H130.573C131.278 45.7415 132.273 46.1576 132.273 47.0779V48.1568H134.099V43.3262H132.304V43.9432H119.135V45.7732H120.052C120.732 45.7732 121.155 46.5349 121.155 47.2506C121.222 52.6384 121.215 57.5819 121.131 62.3385H119.135V64.1368H125.154C126.406 64.3697 127.677 64.4878 128.951 64.4894C131.264 64.4894 133.056 64.1368 134.593 63.3646C136.871 62.2257 138.179 60.4345 138.179 58.4458C138.179 56.4571 136.719 54.8246 134.847 54.7858" fill="#866332"/>
<path d="M147.759 41.1746C146.723 41.1662 145.687 41.2441 144.663 41.4074H139.455C138.373 41.4074 137.252 42.1337 137.252 43.3467C137.243 43.5345 137.271 43.7223 137.336 43.8989C137.401 44.0755 137.5 44.2374 137.628 44.375C137.756 44.5127 137.911 44.6233 138.082 44.7004C138.254 44.7776 138.439 44.8196 138.627 44.8241C138.96 44.8158 139.277 44.6778 139.51 44.4394C139.743 44.201 139.874 43.8811 139.875 43.5477C139.876 43.4281 139.858 43.309 139.822 43.1951H139.854C140.615 43.1951 140.957 44.0343 140.957 44.6407C141.056 50.0285 141.056 57.137 140.957 62.4895L140.898 65.9344L138.941 66.7983V68.787L146.592 65.5924V64.0022H145.675C144.878 64.0022 144.558 63.0925 144.54 62.493C144.512 60.73 144.494 57.2675 144.484 55.4621C145.629 57.1053 147.861 57.9515 150.076 57.9515C152.964 57.9515 155.767 56.862 157.579 55.039C158.282 54.3446 158.837 53.5154 159.212 52.6011C159.586 51.6867 159.772 50.7062 159.758 49.7182C159.727 43.8086 153.708 41.1641 147.77 41.1641L147.759 41.1746ZM147.442 52.4897C147.566 52.4867 147.688 52.518 147.795 52.5803C147.902 52.6425 147.99 52.7332 148.048 52.8423L148.313 53.3712L148.849 53.1314C149.118 53.0081 149.346 52.8092 149.505 52.5589C149.664 52.3085 149.747 52.0175 149.744 51.721C149.744 50.3106 148.404 49.4502 147.11 49.4502C146.609 49.4462 146.113 49.5568 145.661 49.7738C145.209 49.9907 144.812 50.3082 144.501 50.702C144.501 48.2584 144.55 45.7655 144.603 43.1986C145.497 43.0446 146.402 42.9691 147.308 42.9729C151.655 42.9729 156.056 45.2754 156.056 49.6724C156.056 52.8846 153.884 56.2026 150.252 56.2026C149.24 56.2026 147.879 55.9205 147.096 55.1236C146.897 54.9273 146.741 54.6911 146.639 54.4304C146.537 54.1698 146.491 53.8906 146.504 53.611C146.504 53.1667 146.751 52.5073 147.442 52.5073" fill="#866332"/>
<path d="M161.042 45.7831H161.955C162.661 45.7831 163.059 46.513 163.059 47.2288C163.161 52.5179 163.123 57.8069 163.059 62.3167H161.035V64.1467H168.687V62.3167H167.805C166.906 62.3167 166.67 61.3365 166.67 60.804C166.567 55.515 166.575 50.5997 166.687 45.7831H168.687V43.9531H161.035L161.042 45.7831Z" fill="#866332"/>
<path d="M188.753 56.7037H190.763V54.9054H183.112V56.7037H184.025C184.73 56.7037 185.129 57.4301 185.129 58.1353V61.0019C183.907 61.9927 182.382 62.533 180.809 62.5322H180.57C175.824 62.4018 173.26 58.0965 173.26 54.1156C173.26 49.9549 176.204 45.4662 181.017 45.4662C181.795 45.4411 182.569 45.579 183.29 45.8711C184.01 46.1633 184.662 46.6031 185.203 47.1623C185.802 47.7934 186.081 48.407 186.06 49.0275C186.057 49.2398 185.971 49.4425 185.819 49.5917C185.668 49.7408 185.464 49.8244 185.252 49.8244C185.096 49.8325 184.94 49.7981 184.802 49.7249C184.663 49.6516 184.547 49.5422 184.466 49.4083L184.152 48.8618L183.613 49.1862C183.351 49.3418 183.136 49.565 182.99 49.8324C182.844 50.0998 182.773 50.4015 182.784 50.7059C182.808 51.4326 183.118 52.1206 183.646 52.6203C184.174 53.1201 184.878 53.3913 185.605 53.3751C187.558 53.3751 188.778 51.6368 188.803 49.9478C188.791 49.1494 188.611 48.3624 188.274 47.6386C187.937 46.9148 187.45 46.2706 186.846 45.7483C185.302 44.3661 183.098 43.6045 180.644 43.6045C174.466 43.6045 169.441 48.3329 169.441 54.1473C169.441 59.9618 174.297 64.528 180.453 64.528C182.083 64.514 183.682 64.0896 185.104 63.2939L185.079 64.1648H190.763V62.3348H189.847C189.046 62.3348 188.789 61.4568 188.743 60.9667C188.688 59.8978 188.688 58.8268 188.743 57.758C188.743 57.4054 188.743 57.0528 188.743 56.7213" fill="#866332"/>
<path d="M26.2017 62.6694L34.2093 45.3636C34.3364 45.0957 34.4037 44.8033 34.4068 44.5068C34.4068 43.5125 33.7474 42.5851 32.6191 42.5851H32.3546V42.0245H38.5428V42.5851H36.3249L25.3096 66.4422C23.7864 63.0996 22.0022 59.1292 20.1792 55.2259L14.9854 66.4422C12.0094 59.7921 7.80637 50.7267 4.79514 44.3411C4.36496 43.4137 3.60334 42.5781 2.54553 42.5781H2.21408C2.04836 42.5781 1.55471 42.712 1.48772 42.9307C1.6414 42.951 1.78263 43.0259 1.88558 43.1418C1.98852 43.2577 2.04631 43.4068 2.04836 43.5618C2.04106 43.7314 1.96827 43.8916 1.8453 44.0087C1.72233 44.1257 1.55876 44.1905 1.38899 44.1895C1.17886 44.1785 0.981392 44.0856 0.838996 43.9306C0.696599 43.7757 0.620621 43.5711 0.627367 43.3608C0.627367 42.504 1.42072 42.0068 2.21408 42.0068H8.73372V42.5675H6.6181C9.39661 48.7557 13.0707 56.6963 15.8845 62.6659L19.7632 54.2951C18.1447 50.769 16.4875 47.243 15.1335 44.3375C14.7033 43.4102 13.9064 42.5745 12.8486 42.5745H12.5524V42.0139H19.0438V42.5745H16.893C18.1518 45.353 19.5727 48.463 21.029 51.573L23.9098 45.353C24.029 45.0837 24.0845 44.7905 24.072 44.4962C24.0914 44.2523 24.0602 44.0069 23.9806 43.7756C23.9009 43.5442 23.7745 43.3317 23.609 43.1514C23.4436 42.971 23.2428 42.8268 23.0191 42.7275C22.7954 42.6283 22.5537 42.5762 22.3089 42.5745H22.0445V42.0139H28.2115V42.5745H26.0254L21.4415 52.5003C23.0953 56.0263 24.749 59.6158 26.2052 62.6588" fill="#F1EDD9"/>
<path d="M38.543 63.5298V62.9339H40.5281C40.6269 57.7048 40.6586 52.4475 40.5599 47.2184C40.5599 46.1923 39.9005 45.1662 38.8392 45.1662H38.543V44.5703H44.9604V45.1662H42.9752C42.9117 47.1514 42.8765 49.1683 42.8765 51.1605C43.4724 51.8868 44.5302 52.1513 45.4893 52.1513C47.3087 52.1513 48.9977 51.1922 50.8524 51.1922C51.3999 51.1957 51.9397 51.3224 52.4317 51.5629C52.9237 51.8034 53.3552 52.1515 53.6943 52.5815C53.6943 50.7938 53.6626 48.9743 53.6309 47.2219C53.6309 46.1958 52.9997 45.1697 51.8679 45.1697H51.5893V44.5703H57.9749V45.1662H55.9898C55.8911 50.3953 55.8911 55.5892 55.9898 60.8183C55.9898 61.8761 56.6174 62.9339 57.7105 62.9339H57.9749V63.5298H51.5893V62.9339H53.5744C53.6414 59.8239 53.6732 56.7457 53.6732 53.604C53.0773 52.8988 52.0195 52.6449 51.0956 52.6449C49.2092 52.6449 47.5202 53.604 45.7008 53.604C45.1521 53.6041 44.6106 53.4791 44.1175 53.2383C43.6244 52.9976 43.1927 52.6475 42.8553 52.2147C42.8236 55.092 42.8553 57.9692 42.8906 60.8183C42.9223 61.8761 43.5182 62.9339 44.6536 62.9339H44.9498V63.5298H38.543Z" fill="#F1EDD9"/>
<path d="M61.6328 63.5298V62.9339H63.6497C63.7167 57.7048 63.7484 52.4475 63.6497 47.2184C63.6497 46.1923 62.9903 45.1662 61.929 45.1662H61.6328V44.5703H68.0502V45.1662H66.065C65.9346 50.3953 65.9346 55.5892 66.0333 60.8183C66.0333 61.8761 66.6292 62.9339 67.7963 62.9339H68.0608V63.5298H61.6328Z" fill="#F1EDD9"/>
<path d="M81.5615 48.6084V47.7481C81.5615 45.9286 79.9078 44.8038 78.1871 44.8038C76.5651 44.8038 75.0771 46.0274 75.0771 47.7163C75.0771 49.0069 75.9375 49.8989 76.9635 50.5618C78.582 51.5879 80.4684 52.1168 82.0904 53.1429C83.7124 54.169 84.8019 55.7239 84.7702 57.8078C84.7032 61.7111 80.9303 63.8938 77.3655 63.8938C73.8007 63.8938 70.1195 61.6442 70.0878 57.7726C70.0713 57.2188 70.166 56.6673 70.3664 56.1508C70.5667 55.6343 70.8687 55.1632 71.2543 54.7654C71.6399 54.3676 72.1014 54.0512 72.6115 53.8349C73.1215 53.6186 73.6698 53.5068 74.2238 53.5061C75.6801 53.5061 77.0446 54.5639 77.0446 56.0519C77.0446 57.0462 76.4487 57.9066 75.4579 58.0053C75.3592 58.0053 75.2922 57.97 75.2252 57.97C75.2628 57.8187 75.2852 57.6639 75.2922 57.5081C75.2766 57.0806 75.0953 56.676 74.7867 56.3799C74.478 56.0837 74.0662 55.9193 73.6385 55.9214C72.2281 55.8861 71.4206 57.1767 71.4206 58.5025C71.4206 61.6442 74.5306 63.2661 77.3761 63.2661C80.0559 63.2661 82.7357 61.4784 82.7709 58.6329C82.7709 57.1132 81.9423 55.9849 80.7858 55.1598C79.2308 54.102 77.3761 53.5731 75.7894 52.5787C74.2979 51.6514 73.1731 50.3644 73.1731 48.5731C73.1731 45.7982 75.8211 44.2079 78.4339 44.2079C79.5417 44.1623 80.6376 44.451 81.5791 45.0365V43.9082H82.1433V48.6084H81.5615Z" fill="#F1EDD9"/>
<path d="M89.0601 63.5305V62.9698H91.0135C91.0452 62.2646 91.0452 61.6123 91.0452 60.9494C91.1122 58.5341 91.1122 56.1857 91.1122 53.8374C91.1122 51.2211 91.1439 48.6753 91.0452 46.0801L91.0135 45.1528H89.0601C87.3393 45.1528 85.6856 46.2776 85.6856 48.097V48.6259H85.125V43.9434H85.6856V44.571H98.8377V43.9434H99.3631V48.64H98.8377V48.1111C98.8377 46.2917 97.1488 45.1669 95.4281 45.1669H93.4747V46.0942C93.4747 48.6753 93.3759 51.2211 93.3759 53.8515C93.3759 56.1681 93.4077 58.5164 93.4429 60.8648C93.4747 61.8909 94.0706 62.9804 95.2059 62.9804H95.4704V63.5411L89.0601 63.5305Z" fill="#F1EDD9"/>
<path d="M101.66 62.9339H103.645C103.744 57.7083 103.744 52.4475 103.677 47.2184C103.677 46.1923 103.018 45.1345 101.914 45.1345H101.66V44.5703H108.046V45.1345H106.061C105.927 50.3953 105.927 55.5892 106.025 60.8183C106.061 62.6377 107.979 63.2865 109.551 63.2865C112.132 63.2548 115.546 62.4931 115.443 59.4079C115.436 59.08 115.33 58.7619 115.139 58.4956C114.948 58.2292 114.68 58.0272 114.371 57.9161C114.063 57.8049 113.728 57.79 113.411 57.8731C113.093 57.9562 112.809 58.1336 112.594 58.3818C112.367 58.1281 112.249 57.7947 112.266 57.4544C112.266 56.1956 113.458 55.4023 114.647 55.4023C116.269 55.4023 117.393 56.8585 117.362 58.4135C117.326 62.2922 113.257 63.8718 109.848 63.8718C108.966 63.8534 108.09 63.7351 107.235 63.5192H101.66V62.9339ZM115.355 54.9263H115.19C114.931 54.9208 114.676 54.8642 114.439 54.7597C114.202 54.6551 113.989 54.5048 113.81 54.3173C113.632 54.1298 113.493 53.9089 113.4 53.6672C113.308 53.4256 113.264 53.168 113.271 52.9094C113.271 51.5519 114.594 50.4941 114.594 49.1365C114.594 48.4102 114.199 47.6485 113.37 47.6485H113.24V47.3841C113.392 47.3578 113.547 47.3471 113.702 47.3524C113.993 47.3406 114.284 47.387 114.558 47.4891C114.831 47.5911 115.082 47.7466 115.295 47.9465C115.507 48.1465 115.678 48.3868 115.797 48.6535C115.916 48.9202 115.98 49.2078 115.986 49.4997C115.986 50.9912 114.396 52.0173 114.396 53.47C114.396 54.0659 114.661 54.6971 115.292 54.6971H115.355V54.9263Z" fill="#F1EDD9"/>
<path d="M119.738 62.9698H121.72C121.822 57.709 121.822 52.4799 121.755 47.2508C121.755 46.2282 121.092 45.1669 120.034 45.1669H119.738V44.571H132.904V43.9434H133.469V47.5822H132.904V47.1203C132.904 45.8968 131.713 45.1669 130.588 45.1669H124.171C124.104 47.2508 124.037 49.2712 124.037 51.3551C124.682 50.8322 125.491 50.5515 126.321 50.5617C128.338 50.5617 130.059 52.0144 132.044 52.0497C133.035 52.0497 134.029 51.4538 134.029 50.4277C134.025 50.2276 133.941 50.0375 133.797 49.8988L133.998 49.7014C134.233 49.901 134.423 50.1488 134.554 50.428C134.685 50.7072 134.755 51.0113 134.759 51.3198C134.724 52.7761 133.433 53.6047 132.044 53.6047C129.763 53.6047 127.975 51.4891 125.697 51.4891C125.122 51.4873 124.555 51.624 124.044 51.8875C124.044 54.8317 124.075 57.843 124.142 60.8542C124.178 63.1356 126.79 63.3683 128.61 63.3224C130.373 63.3224 132.182 63.0897 133.737 62.1624C134.731 61.5347 135.69 60.6744 135.658 59.4509C135.641 59.0262 135.465 58.6237 135.164 58.3232C134.864 58.0227 134.461 57.8462 134.036 57.8289C133.799 57.8223 133.565 57.873 133.351 57.9768C133.138 58.0805 132.954 58.2342 132.813 58.4248C132.686 58.3059 132.586 58.1621 132.518 58.0025C132.45 57.8429 132.416 57.6709 132.418 57.4974C132.481 56.2422 133.641 55.4135 134.83 55.4135C136.452 55.4488 137.545 56.9015 137.545 58.4565C137.545 60.4769 136.022 61.9649 134.301 62.8253C132.647 63.6504 130.796 63.8831 128.941 63.8831C127.687 63.8827 126.436 63.7647 125.204 63.5305H119.738V62.9698Z" fill="#F1EDD9"/>
<path d="M139.554 67.8702V67.2073L141.507 66.347L141.574 62.5107C141.673 57.1158 141.673 50.0638 141.574 44.6372C141.574 43.6464 140.946 42.5851 139.853 42.5851H139.455C139.319 42.5811 139.185 42.6058 139.06 42.6574C138.935 42.7091 138.822 42.7865 138.728 42.8848L138.693 42.9165C138.846 42.9407 138.985 43.0167 139.088 43.1317C139.19 43.2467 139.25 43.3936 139.257 43.5477C139.258 43.7178 139.192 43.8813 139.074 44.0042C138.957 44.1271 138.796 44.1998 138.626 44.207C138.519 44.2027 138.414 44.1766 138.317 44.1305C138.221 44.0845 138.134 44.0192 138.063 43.9388C137.992 43.8584 137.939 43.7645 137.905 43.6627C137.872 43.561 137.859 43.4534 137.868 43.3467C137.868 42.5216 138.661 42.0244 139.455 42.0244H144.716C145.723 41.8607 146.742 41.7828 147.762 41.7917C152.857 41.7917 159.109 43.8756 159.141 49.7323C159.176 54.563 154.557 57.3415 150.075 57.3415C147.364 57.3415 144.321 55.9311 144.321 52.9093C144.314 52.1642 144.603 51.4467 145.123 50.9136C145.644 50.3804 146.354 50.0749 147.099 50.0638C148.122 50.0638 149.116 50.7231 149.116 51.7175C149.124 51.8973 149.078 52.0752 148.983 52.2286C148.889 52.3819 148.751 52.5035 148.587 52.5778C148.479 52.3641 148.314 52.1849 148.11 52.0602C147.905 51.9356 147.67 51.8706 147.431 51.8726C146.436 51.8726 145.876 52.733 145.876 53.5933C145.84 55.8747 148.256 56.802 150.241 56.802C154.081 56.802 156.658 53.3289 156.658 49.6548C156.658 44.7606 151.722 42.3453 147.297 42.3453C146.185 42.3377 145.075 42.4476 143.986 42.6732C143.855 48.7309 143.824 56.4424 143.922 62.5001C143.954 63.5226 144.55 64.6157 145.685 64.6157H145.985V65.1799L139.554 67.8702Z" fill="#F1EDD9"/>
<path d="M161.658 63.5298V62.9339H163.675C163.742 57.7048 163.774 52.4475 163.675 47.2184C163.675 46.1923 163.012 45.1662 161.954 45.1662H161.658V44.5703H168.076V45.1662H166.09C165.96 50.3953 165.96 55.5892 166.059 60.8183C166.059 61.8761 166.655 62.9339 167.822 62.9339H168.086V63.5298H161.658Z" fill="#F1EDD9"/>
<path d="M185.713 63.5297L185.745 62.1404C184.207 63.2629 182.359 63.8791 180.456 63.9035C174.648 63.8929 170.064 59.5594 170.064 54.1328C170.064 48.3748 175.064 44.207 180.643 44.207C182.758 44.207 184.874 44.8029 186.432 46.1922C186.972 46.6569 187.407 47.2298 187.711 47.8737C188.015 48.5175 188.18 49.218 188.195 49.9298C188.16 51.386 187.138 52.7506 185.611 52.7506C185.045 52.7707 184.495 52.566 184.08 52.1815C183.665 51.7969 183.419 51.2637 183.396 50.6985C183.386 50.5003 183.43 50.3031 183.523 50.1279C183.616 49.9528 183.755 49.8062 183.925 49.7041C184.06 49.933 184.254 50.1214 184.487 50.2498C184.719 50.3782 184.982 50.4418 185.248 50.434C185.617 50.4296 185.97 50.2824 186.233 50.0234C186.496 49.7644 186.648 49.4137 186.658 49.0447C186.653 48.6092 186.56 48.1792 186.383 47.7809C186.207 47.3826 185.951 47.0244 185.632 46.7281C185.031 46.1112 184.31 45.6251 183.513 45.3004C182.715 44.9758 181.859 44.8196 180.999 44.8417C176.002 44.81 172.628 49.3409 172.628 54.1081C172.628 58.692 175.671 63.0078 180.537 63.1383C182.441 63.2056 184.298 62.5435 185.731 61.2871V58.1419C185.731 57.1194 185.068 56.0933 184.01 56.0933H183.714V55.5291H190.163V56.0933H188.178C188.146 56.6539 188.146 57.1828 188.146 57.747C188.111 58.8401 188.079 60.4268 188.146 61.0227C188.213 61.9818 188.805 62.9408 189.867 62.9408H190.163V63.5367L185.713 63.5297Z" fill="#F1EDD9"/>
<path d="M114.858 35.5749C115.114 35.5748 115.369 35.6206 115.609 35.7101C115.203 35.7627 114.798 35.7101 114.362 35.8153L114.482 35.8829C115.04 36.1153 115.664 36.1314 116.233 35.928C116.312 35.9128 116.394 35.9128 116.473 35.928C116.729 35.928 116.984 36.0031 117.225 36.0632L118.968 36.4615H119.118H119.253C119.25 36.4491 119.25 36.4363 119.253 36.4239C118.983 36.3337 118.727 36.236 118.457 36.1609C117.794 35.9718 117.119 35.8312 116.436 35.7402C116.36 35.7327 116.286 35.7123 116.218 35.6801C115.862 35.4832 115.467 35.3677 115.061 35.342C114.78 35.3147 114.497 35.3533 114.234 35.4547L114.114 35.5223C114.385 35.5223 114.625 35.5223 114.865 35.5223L114.858 35.5749ZM111.364 34.7034V34.7409C110.95 34.8638 110.549 35.0301 110.17 35.2368C110.317 35.2517 110.466 35.2517 110.613 35.2368C111.128 35.2234 111.618 35.0168 111.988 34.6583C112.05 34.599 112.128 34.5597 112.213 34.5456C112.894 34.428 113.582 34.3552 114.272 34.3277H114.858C114.823 34.3242 114.788 34.3242 114.753 34.3277C114.48 34.3127 114.207 34.3127 113.934 34.3277C113.305 34.3599 112.68 34.4378 112.063 34.5606C112.008 34.5717 111.952 34.5717 111.898 34.5606C111.476 34.4889 111.043 34.5411 110.651 34.7109C110.442 34.7958 110.251 34.918 110.087 35.0715C110.137 35.0707 110.186 35.0578 110.23 35.0339C110.541 34.918 110.863 34.8349 111.191 34.786H111.349L111.364 34.7034ZM109.734 34.7184C109.421 34.9262 109.119 35.1519 108.832 35.3946H109.028C109.517 35.3056 109.957 35.0379 110.26 34.6432C110.317 34.5655 110.399 34.5098 110.493 34.4855C111.01 34.3333 111.537 34.2153 112.07 34.1324L112.476 34.0572C112.396 34.0467 112.316 34.0467 112.236 34.0572C111.64 34.0781 111.05 34.187 110.485 34.3803C110.33 34.4406 110.164 34.4712 109.997 34.4705C109.937 34.4632 109.876 34.4632 109.817 34.4705C109.322 34.5634 108.877 34.8298 108.562 35.2218C108.56 35.2418 108.56 35.2619 108.562 35.2819C108.934 35.0523 109.333 34.8682 109.749 34.7334L109.734 34.7184ZM110.057 36.2361C109.726 36.1553 109.4 36.0549 109.08 35.9355C109.234 36.1874 109.474 36.3745 109.756 36.4615C110.032 36.5453 110.318 36.5883 110.605 36.5892C110.707 36.5895 110.808 36.6046 110.906 36.6342L112.626 37.1752L112.777 37.2128C112.777 37.2128 112.777 37.2128 112.777 37.1752L112.424 37.0249L110.921 36.4765C110.837 36.4497 110.763 36.3972 110.711 36.3262C110.641 36.2364 110.563 36.1533 110.478 36.0783C110.302 35.9236 110.095 35.8087 109.87 35.7412C109.646 35.6738 109.41 35.6555 109.178 35.6876C109.456 35.8904 109.786 36.0182 110.064 36.2361H110.057ZM112.611 36.6868L113.092 36.9047L114.309 37.5358L114.625 37.6861C114.075 37.3224 113.5 36.9985 112.904 36.7169C112.722 36.636 112.564 36.5091 112.446 36.3487C112.298 36.1412 112.107 35.9671 111.887 35.8377C111.667 35.7083 111.422 35.6264 111.169 35.5974C111.067 35.582 110.963 35.582 110.861 35.5974C111.247 35.7744 111.606 36.0046 111.928 36.2812C111.569 36.1358 111.203 36.0103 110.831 35.9055C110.995 36.114 111.204 36.2835 111.442 36.4017C111.679 36.5199 111.94 36.584 112.206 36.5892C112.345 36.5959 112.482 36.6264 112.611 36.6793V36.6868ZM115.752 37.2428C116.016 37.2757 116.271 37.36 116.503 37.4908L118.284 38.3773L118.427 38.4374C118.35 38.3665 118.264 38.3059 118.171 38.2571C117.6 37.9265 117.029 37.5809 116.428 37.3029C116.282 37.2351 116.156 37.1318 116.06 37.0024C115.968 36.8901 115.867 36.7846 115.759 36.6868C115.55 36.4808 115.291 36.3309 115.008 36.2511C114.877 36.1997 114.734 36.1842 114.595 36.206L115.534 36.8897C115.2 36.8063 114.879 36.6774 114.58 36.5065C114.711 36.7026 114.883 36.868 115.084 36.9912C115.285 37.1145 115.51 37.1926 115.744 37.2203L115.752 37.2428ZM114.302 36.8521L115.609 37.6485C115.716 37.712 115.827 37.7697 115.94 37.8213L115.767 37.6936L114.43 36.8146C114.367 36.7775 114.317 36.7226 114.287 36.6568C114.186 36.4244 114.034 36.2182 113.841 36.054C113.648 35.8899 113.42 35.7722 113.175 35.7101C112.997 35.659 112.811 35.6386 112.626 35.65L113.197 36.0031C113.381 36.112 113.55 36.2433 113.701 36.3938C113.348 36.2285 112.95 36.0557 112.626 35.898C112.724 36.0107 112.822 36.1234 112.927 36.2286C113.098 36.4209 113.323 36.5571 113.573 36.6192L114.069 36.7394C114.153 36.757 114.234 36.7874 114.309 36.8296L114.302 36.8521ZM117.991 37.1902C118.389 37.348 118.795 37.5058 119.185 37.6711L120.342 38.182C120.383 38.2015 120.426 38.2166 120.47 38.227L119.839 37.8664C119.238 37.5627 118.618 37.2967 117.983 37.07C117.919 37.0468 117.861 37.0111 117.811 36.9648C117.501 36.6698 117.116 36.4646 116.699 36.3713C116.452 36.3077 116.194 36.3077 115.947 36.3713C116.362 36.4913 116.758 36.6657 117.127 36.8897C116.736 36.7996 116.376 36.7244 115.925 36.6643C115.925 36.6643 115.925 36.7169 115.925 36.7244C116.132 36.9629 116.404 37.1366 116.708 37.2246C117.012 37.3125 117.335 37.311 117.638 37.2203C117.725 37.1905 117.821 37.1905 117.908 37.2203L117.991 37.1902ZM127.36 29.8424H127.57C127.57 29.8424 127.57 29.8424 127.57 29.7823C127.142 29.7823 126.714 29.7372 126.285 29.7447C125.221 29.7708 124.159 29.8687 123.107 30.0377C122.991 30.0602 122.871 30.0602 122.754 30.0377C122.143 29.8988 121.509 29.8988 120.898 30.0377C120.476 30.1258 120.08 30.311 119.741 30.5787L119.591 30.7289C119.997 30.6237 120.342 30.511 120.718 30.4359C121.081 30.3281 121.46 30.2874 121.838 30.3157C121.267 30.5787 120.65 30.7289 120.042 31.067L120.252 31.1046C121.182 31.1858 122.109 30.9179 122.852 30.3533C122.95 30.2758 123.066 30.2241 123.19 30.203C123.588 30.1354 123.986 30.0753 124.385 30.0452C125.294 29.9701 126.21 29.9175 127.127 29.8574H127.367L127.36 29.8424ZM120.185 28.6778V28.6327C120.13 28.6291 120.074 28.6291 120.019 28.6327C119.614 28.7379 119.193 28.8131 118.795 28.9558C117.88 29.2802 116.994 29.6772 116.143 30.1429C116.067 30.1827 115.986 30.2106 115.902 30.2256C115.251 30.298 114.634 30.5591 114.129 30.9769C113.863 31.1854 113.637 31.4399 113.46 31.7282C113.533 31.6972 113.601 31.6567 113.663 31.608C114.065 31.2877 114.504 31.0178 114.971 30.804L115.196 30.7289V30.7815C114.639 31.1493 114.123 31.575 113.656 32.0512C113.883 32.0192 114.107 31.9664 114.324 31.8935C115.083 31.6368 115.715 31.099 116.09 30.3908C116.156 30.2738 116.255 30.1795 116.376 30.1204C117.326 29.6426 118.308 29.2284 119.313 28.8807C119.599 28.783 119.877 28.6703 120.162 28.5576L120.185 28.6778ZM124.152 28.8356L124.738 28.7304C124.738 28.7304 124.738 28.7304 124.738 28.6928C124.698 28.6851 124.657 28.6851 124.617 28.6928C123.979 28.7605 123.325 28.783 122.694 28.9032C121.672 29.1061 120.666 29.369 119.651 29.602C119.542 29.6172 119.43 29.6172 119.321 29.602C118.768 29.5864 118.218 29.6806 117.702 29.8792C117.186 30.0778 116.715 30.3769 116.315 30.759C116.259 30.8129 116.206 30.8706 116.158 30.9318C116.216 30.9315 116.273 30.916 116.323 30.8867C116.801 30.6055 117.304 30.3691 117.826 30.1804C117.965 30.1351 118.115 30.1351 118.254 30.1804C117.649 30.4929 117.071 30.8547 116.526 31.2623C117.012 31.2174 117.49 31.1061 117.946 30.9318C118.484 30.7006 118.974 30.3691 119.388 29.9551C119.48 29.8686 119.591 29.8043 119.711 29.7672C120.395 29.5944 121.079 29.4216 121.762 29.2714C122.446 29.1211 123.333 28.9558 124.122 28.8056L124.152 28.8356ZM115.932 29.354L116.496 29.061C116.373 29.0676 116.252 29.0903 116.135 29.1286C115.264 29.4277 114.441 29.853 113.693 30.3908C113.499 30.554 113.27 30.672 113.025 30.7364C112.932 30.7616 112.844 30.7995 112.762 30.8491C112.077 31.211 111.545 31.8051 111.259 32.5246C111.255 32.5595 111.255 32.5948 111.259 32.6297C111.704 32.1244 112.208 31.6753 112.762 31.2924C112.389 31.7355 112.045 32.2022 111.732 32.6898L111.777 32.7274L112.055 32.5997C112.749 32.2495 113.285 31.6515 113.558 30.9243C113.605 30.781 113.701 30.6588 113.829 30.5787C114.526 30.1298 115.248 29.7209 115.992 29.354H115.932ZM112.326 33.3135C112.665 33.6226 113.107 33.7941 113.566 33.7943C114.006 33.7937 114.444 33.7279 114.865 33.599C115.016 33.5508 115.173 33.5279 115.331 33.5313C116.263 33.5313 117.187 33.5313 118.111 33.5313H118.351V33.4712C118.156 33.4712 117.961 33.4111 117.765 33.4036L115.271 33.2834C115.136 33.2776 115.006 33.2333 114.895 33.1557C114.753 33.0549 114.602 32.9669 114.445 32.8927C114.115 32.7385 113.756 32.6585 113.393 32.6585C113.029 32.6585 112.67 32.7385 112.341 32.8927C112.852 33.0655 113.393 33.1031 113.896 33.2984C113.373 33.336 112.849 33.336 112.326 33.2984V33.3135ZM118.667 32.9378L120.748 33.3135L121.282 33.3961H121.221C120.236 33.1078 119.232 32.8869 118.216 32.7349C117.911 32.6981 117.621 32.5815 117.375 32.3968C117.06 32.1681 116.701 32.0073 116.321 31.9245C115.941 31.8417 115.547 31.8388 115.166 31.916C115.008 31.9378 114.854 31.9808 114.708 32.0437C115.358 32.1298 115.993 32.3068 116.593 32.5697C115.999 32.5133 115.402 32.4907 114.805 32.502C114.805 32.502 114.805 32.5546 114.805 32.5621C115.143 32.7939 115.527 32.949 115.93 33.0165C116.334 33.084 116.747 33.0622 117.142 32.9528C117.349 32.8941 117.566 32.8763 117.78 32.9002C118.051 32.9002 118.321 32.9603 118.584 33.0054L118.667 32.9378ZM123.844 32.3517H123.919L126.924 32.8626H127.149C127.006 32.7936 126.855 32.7431 126.699 32.7124C125.707 32.4795 124.715 32.224 123.693 32.0888C123.449 32.0555 123.217 31.9626 123.017 31.8183C122.836 31.687 122.642 31.5738 122.439 31.4802C122.029 31.2724 121.575 31.1692 121.116 31.1797C120.902 31.1688 120.688 31.2101 120.493 31.2999L122.183 31.8859C121.654 31.9088 121.123 31.8634 120.605 31.7507C120.886 31.9809 121.214 32.1472 121.565 32.238C121.917 32.3288 122.284 32.342 122.641 32.2766C123.031 32.2053 123.431 32.2053 123.821 32.2766L123.844 32.3517ZM120.35 32.3442L122.604 32.9303C122.799 32.9829 122.987 33.0054 123.182 33.043C123.182 33.043 123.182 33.0429 123.182 32.9979L122.874 32.8852L120.5 32.194C120.394 32.1661 120.298 32.1088 120.222 32.0287C119.971 31.7295 119.653 31.4925 119.295 31.3361C118.936 31.1797 118.547 31.1082 118.156 31.1271C117.868 31.1302 117.583 31.1862 117.315 31.2924C117.683 31.3826 118.006 31.4652 118.321 31.5554C118.643 31.6288 118.954 31.7451 119.245 31.901C119.242 31.9158 119.242 31.9312 119.245 31.9461L117.435 31.6981L118.021 32.0587C118.362 32.2576 118.753 32.3541 119.148 32.3368L119.899 32.2917C120.031 32.2728 120.165 32.2728 120.297 32.2917L120.35 32.3442ZM125.887 31.1647C126.548 31.2248 127.21 31.2699 127.871 31.3375L129.794 31.5779C129.869 31.5779 129.944 31.5779 130.012 31.5779C130.016 31.558 130.016 31.5377 130.012 31.5178L128.915 31.2774C127.891 31.0984 126.857 30.9829 125.819 30.9318C125.718 30.9268 125.618 30.9013 125.527 30.8566C124.936 30.5623 124.277 30.4325 123.618 30.481C123.243 30.4906 122.875 30.5884 122.544 30.7665C123.21 30.7588 123.874 30.8371 124.52 30.9994C123.904 31.0445 123.288 31.1121 122.656 31.2098L122.724 31.2849C123.134 31.5498 123.611 31.6907 124.099 31.6907C124.587 31.6907 125.064 31.5498 125.474 31.2849C125.593 31.2049 125.737 31.1703 125.88 31.1872L125.887 31.1647ZM102.859 36.6493H104.49C105.29 36.383 106.116 36.2017 106.954 36.1083C107.795 36.0106 108.382 35.9956 108.382 35.9956L108.051 35.4922C107.152 35.4743 106.254 35.5626 105.376 35.7552L111.101 33.1106L110.35 33.0054L104.122 35.7402L102.859 36.6493Z" fill="#F1EDD9"/>
<path d="M89.0963 36.8142L81.2903 31.2169L79.3368 29.8194L77.3533 28.4671L73.3789 25.7773L77.2031 28.6774L79.1265 30.12L81.0799 31.5174L87.1805 35.8901L87.9844 36.4686L88.4127 36.7766H79.8853L78.8785 37.0997L78.7283 37.1372C78.7283 37.1372 78.7283 37.1372 78.7283 37.0997C78.8485 37.0471 78.9611 36.9869 79.0814 36.9419L79.5472 36.7766H78.5404L78.4277 36.8292L77.8192 37.1447H89.5622L89.0963 36.8142Z" fill="#AF8746"/>
<path d="M73.52 37.0102C73.5814 36.9897 73.6378 36.9564 73.6853 36.9126C73.7455 36.86 73.8131 36.8299 73.8732 36.7773H64.0009L62.0775 36.8375L58.2383 36.9652L62.0775 37.0854L64.0009 37.1455H73.1895L73.52 37.0102Z" fill="#AF8746"/>
<path d="M129.426 36.845L127.503 36.7773H117.631C117.691 36.8224 117.759 36.86 117.819 36.9126C117.866 36.9564 117.923 36.9897 117.984 37.0102L118.314 37.1455H127.503L129.426 37.0854L133.273 36.9727L129.426 36.845Z" fill="#AF8746"/>
<path d="M113.1 36.8299L112.987 36.7773H111.981L112.446 36.9425C112.567 36.9876 112.679 37.0477 112.799 37.1003V37.1379L112.649 37.1003L111.642 36.7773H103.13L103.363 36.612L104.392 35.8607L110.463 31.5106L112.409 30.1131L114.332 28.6706L118.156 25.7705L114.182 28.4602L112.198 29.8126L110.245 31.2101L102.439 36.8073L101.98 37.1379H113.724L113.115 36.8224" fill="#AF8746"/>
<path d="M113.355 26.9722L117.277 23.749L113.258 26.1683C113.326 26.4306 113.359 26.701 113.355 26.9722Z" fill="#AF8746"/>
<path d="M101.266 35.4617L104.49 33.2078L104.069 32.6143L101.236 34.5902C101.27 34.8797 101.27 35.1722 101.236 35.4617" fill="#AF8746"/>
<path d="M100.125 39.3837H132.995C134.768 39.2635 136.549 39.1659 138.322 39.0156C136.549 38.8653 134.768 38.7677 132.995 38.6475H100.606L100.125 39.3837Z" fill="#AF8746"/>
<path d="M96.7739 39.3842C95.6018 38.6329 75.737 24.8614 74.5725 24.1025C76.2479 25.4324 77.9384 26.7397 79.6213 28.0545C81.3042 29.3693 83.0473 30.6089 84.7828 31.8561L94.2795 38.663H63.4756C62.5815 38.663 61.695 38.663 60.8085 38.663L58.1412 38.7682C56.3681 38.8433 54.5951 38.9109 52.8145 39.0086C54.5951 39.1063 56.3681 39.1739 58.1412 39.249L60.8085 39.3542C61.695 39.4068 62.5815 39.3542 63.4756 39.3542L96.7739 39.3842Z" fill="#AF8746"/>
<path d="M96.7822 27.7464C94.7161 27.8967 91.4028 30.1131 90.6289 31.751C91.6131 32.0966 92.417 32.8855 92.9429 32.9906C93.6078 30.8623 94.9577 29.0133 96.7822 27.7314" fill="#F1EDD9"/>
<path d="M105.385 21.713L105.249 20.9091C103.741 21.6258 102.102 22.0247 100.433 22.0812C107.466 20.1954 109.149 14.9662 104.596 13.3734L105.52 13.1781C103.649 8.76789 98.0067 8.30208 93.6716 9.42154C93.3319 9.50791 92.9765 9.51134 92.6352 9.43158C92.2939 9.35182 91.9768 9.19117 91.7106 8.9632C95.933 6.70926 101.207 6.25096 105.234 9.06088C103.972 6.92714 101.034 6.40873 99.5018 6.28852V5.23671C99.9318 5.23788 100.361 5.27053 100.786 5.33439C100.786 4.89111 100.862 1.83326 100.899 0.8265C100.899 0.646185 100.899 0.540991 100.666 0.488399C99.4103 0.174598 98.1216 0.0106529 96.827 2.66577e-05C93.1924 -0.00712369 89.7026 1.42443 87.12 3.98198C87.0224 4.07214 87.0299 4.22995 87.12 4.38772L89.4867 8.50491C88.5371 9.45141 87.4216 10.2154 86.1959 10.7589C85.64 10.9692 85.7302 11.3073 86.0758 11.5102C86.6017 11.8558 87.1051 12.1187 87.1051 12.1187C86.7144 13.103 85.8353 15.124 87.0299 16.9722C86.7444 13.8468 88.0292 12.5319 88.0292 12.5319H88.7805C88.3748 11.9835 87.5258 11.5252 87.1802 11.0669C88.0494 10.5142 88.9499 10.0124 89.8774 9.56429C90.4935 9.35392 90.9217 9.26372 91.2523 9.80467C91.5828 10.3456 92.3792 10.0827 92.3792 10.0827C92.2805 10.3022 92.128 10.4935 91.936 10.6387C91.8158 10.7438 91.6956 11.0068 92.0261 11.0669C92.3567 11.127 93.1606 11.0669 93.4537 11.5477C87.646 11.3975 85.9781 17.2803 90.1179 20.2029C89.0285 19.0534 88.4649 16.4012 88.9157 15.2367C89.1035 18.7078 91.8158 21.9309 95.1516 22.3892C94.904 22.4422 94.648 22.4422 94.4003 22.3892C93.6936 22.3128 92.9808 22.3128 92.2741 22.3892C91.9868 22.4311 91.6935 22.3948 91.4251 22.284C91.2148 22.1939 89.7497 21.5327 89.3515 21.405C89.1799 21.3261 88.9848 21.3148 88.8052 21.3733C88.6256 21.4318 88.4746 21.5557 88.3823 21.7206C88.2062 21.9996 88.0554 22.2938 87.9315 22.5996C86.2035 22.5996 80.1779 24.553 78.8105 25.2667C81.6355 24.6206 85.5198 23.9745 87.5333 24.4628C87.4041 25.3684 87.6098 26.2901 88.1118 27.0549C88.1919 27.1906 88.3126 27.2977 88.4568 27.3611C88.6011 27.4245 88.7616 27.4409 88.9157 27.408C89.6884 28.1506 90.2131 29.1135 90.4183 30.1653C90.3771 28.8522 90.0326 27.5665 89.4116 26.4087C88.9007 26.6867 88.6602 26.6942 88.4499 26.2885C87.6986 24.9962 88.3522 23.1931 88.9232 22.4343C88.9544 22.3776 88.9967 22.3279 89.0476 22.288C89.0984 22.2481 89.1568 22.2188 89.2193 22.202C89.2817 22.1852 89.3468 22.1811 89.4108 22.19C89.4749 22.1989 89.5365 22.2207 89.5919 22.254C90.1929 22.4294 90.7687 22.6819 91.3049 23.0053C91.4552 23.1105 91.5077 23.2156 91.4702 23.4861C91.4326 23.7566 91.38 24.29 91.38 24.29C91.5214 24.0263 91.6848 23.775 91.8684 23.5387C92.0045 23.3794 92.1724 23.2504 92.3613 23.1598C92.5502 23.0692 92.7559 23.0191 92.9653 23.0128C93.4122 23.0102 93.8588 23.0354 94.3026 23.0879C94.5581 23.0879 94.6859 23.3133 94.6258 23.6214C94.5823 23.8393 94.5571 24.0604 94.5505 24.2825C94.5505 24.2825 95.3019 23.4861 95.4822 23.2908C95.5638 23.2076 95.6653 23.1468 95.7771 23.1139C95.8889 23.081 96.0072 23.0772 96.1209 23.1029C96.936 23.1484 97.7518 23.0257 98.5175 22.7423C100.358 22.0962 100.644 23.0354 100.02 23.8393C99.4953 24.4308 99.0828 25.1131 98.803 25.8528C101.59 24.5154 106.79 22.8475 107.676 22.9677C107.268 23.1814 106.88 23.433 106.519 23.719C107.306 23.745 108.085 23.8946 108.826 24.1623C105.437 24.3126 100.832 26.1007 100.832 26.1007C102.198 26.2843 103.486 26.8478 104.549 27.7271C105.611 28.6063 106.406 29.766 106.842 31.0744C106.842 31.0744 110.599 28.8656 111.733 28.2495C113.326 27.3629 111.673 22.2389 105.43 21.6454L105.385 21.713ZM98.187 6.281L98.1343 5.19911C98.4018 5.17718 98.6708 5.17718 98.9383 5.19911V6.27353H98.187V6.281ZM91.4251 8.17433L90.9443 8.43732C90.8508 8.47869 90.7452 8.48391 90.6481 8.45199C90.5509 8.42007 90.4691 8.35325 90.4183 8.26448C89.945 7.45306 88.6678 5.25921 88.1118 4.25997C90.506 2.02906 93.6598 0.793364 96.9322 0.803939C98.0195 0.812431 99.1027 0.938381 100.163 1.1796C100.163 2.02107 100.103 3.43355 100.088 4.4328H99.5694V1.90087C99.3629 1.8454 99.1516 1.81016 98.9383 1.79568V4.4328L98.0968 4.4854L98.0141 1.72057C97.7094 1.69209 97.4035 1.67951 97.0975 1.68296L97.2478 4.58307C97.2478 4.58307 94.0848 5.20665 92.9127 6.35616C94.3524 5.91135 95.8144 5.54267 97.2929 5.25171L97.368 6.31861C95.2648 6.54964 93.2248 7.17944 91.3575 8.17433H91.4251ZM104.13 11.5778C104.13 11.5778 103.033 11.3599 102.327 11.2773C102.126 11.2625 101.937 11.1801 101.789 11.0436C101.642 10.9071 101.545 10.7246 101.515 10.5259C102.481 10.5754 103.402 10.9485 104.13 11.5853V11.5778ZM97.7436 10.0827C97.6835 10.4207 97.3154 10.7889 96.6392 10.6612C95.6996 10.5479 94.7524 10.5102 93.8068 10.5485C95.0453 10.0117 96.414 9.84975 97.7436 10.0827ZM97.5708 11.9009C97.6535 12.3291 97.353 12.5169 96.8797 12.5169C96.8421 11.9009 96.1734 11.8182 96.0833 12.4343C95.5911 12.3812 95.1244 12.1882 94.7384 11.8783C95.9104 11.3298 97.4431 11.1946 97.5708 11.8783V11.9009ZM96.6392 18.4824C97.5183 18.6777 99.6895 18.8731 99.8022 18.0992C98.9157 18.0992 96.241 16.4688 95.2493 16.0932C94.8714 15.9165 94.4569 15.8325 94.0401 15.8482C93.6232 15.8639 93.2161 15.9788 92.8526 16.1834C93.0704 15.5297 93.7166 15.109 94.8737 15.0489L94.6858 15.4846C95.5519 15.7365 96.3961 16.0581 97.2102 16.4463V15.7626C97.337 15.8245 97.4437 15.9209 97.5183 16.0406C99.5318 19.0459 103.784 16.5064 102.439 14.538C102.372 14.7709 102.439 15.4546 101.974 15.3945C101.508 15.3343 101.455 14.3952 101.974 13.8918C102.006 13.8673 102.033 13.8356 102.051 13.7991C102.069 13.7625 102.079 13.7223 102.079 13.6815C102.079 13.6407 102.069 13.6004 102.051 13.5639C102.033 13.5273 102.006 13.4956 101.974 13.4711C101.147 12.4493 98.4199 12.4794 97.3154 14.9737C97.2483 14.4989 97.3408 14.0154 97.5784 13.5988C97.2207 13.7243 96.8858 13.907 96.5867 14.1398C97.338 12.3817 100.11 11.7431 101.989 12.4343C103.138 11.5477 104.07 12.5019 104.874 12.6522C104.47 12.9177 104.003 13.0707 103.521 13.0954C103.394 12.3441 102.77 12.4343 102.77 13.0354C103.664 14.0121 103.371 15.8152 102.905 16.4839C102.905 16.4839 103.529 16.3035 103.904 16.1533C104.046 16.1088 104.168 16.0161 104.249 15.8913C104.33 15.7665 104.365 15.6174 104.348 15.4696C104.605 15.5477 104.835 15.6972 105.01 15.9007C105.186 16.1042 105.3 16.3533 105.339 16.6191C105.084 16.3035 104.31 16.3937 103.987 16.4914C103.147 16.8591 102.327 17.2704 101.53 17.7236C101.342 17.8137 101.327 17.8137 101.245 18.0166C100.779 19.121 98.3447 19.7221 96.6392 18.4824ZM98.6603 14.0872C98.7106 14.0048 98.7813 13.9368 98.8655 13.8895C98.9497 13.8423 99.0445 13.8175 99.1411 13.8175C99.2376 13.8175 99.3326 13.8423 99.4168 13.8895C99.501 13.9368 99.5716 14.0048 99.6219 14.0872C99.975 14.7108 99.6219 15.5898 99.1787 15.5372C98.7354 15.4846 98.8481 14.8911 98.9458 14.5831C98.9937 14.4206 99.0785 14.2715 99.1937 14.1473C98.7129 14.0421 98.5251 14.3727 98.6603 14.0947" fill="#F1EDD9"/>
<path d="M98.622 28.249C98.4695 28.1583 98.2921 28.1182 98.1153 28.1344C97.9386 28.1506 97.7714 28.2222 97.6378 28.3392C93.5506 30.9237 92.1382 37.2122 97.6378 39.9995C97.8099 39.7857 97.9585 39.554 98.0811 39.3083C98.1262 39.1506 97.9985 39.0304 97.7205 38.9102C96.4658 38.0612 95.5642 36.8741 95.7069 35.6194C96.4583 37.077 98.3892 38.4068 98.9226 38.7448C99.6054 37.668 100.001 36.4342 100.072 35.1611C100.053 34.17 99.6801 33.2186 99.0203 32.4789C99.3034 32.582 99.5629 32.7409 99.7836 32.9461C100.004 33.1512 100.182 33.3986 100.305 33.6735C100.38 33.8162 100.53 33.7937 100.628 33.6735C100.843 33.4215 100.974 33.1091 101.004 32.7794C101.116 32.0281 100.883 31.675 100.463 30.7058C100.884 30.9016 101.258 31.1861 101.56 31.5398C101.711 31.4116 101.875 31.2984 102.048 31.2017C101.233 29.8834 100.028 28.8515 98.5995 28.249" fill="#F1EDD9"/>
<path d="M91.8594 29.602C93.1654 28.0221 94.9789 26.9441 96.9908 26.5517C96.4671 26.077 95.8392 25.7321 95.1577 25.5449C95.0432 25.5276 94.9264 25.5334 94.8142 25.5618C94.702 25.5901 94.5965 25.6406 94.504 25.7102C93.2558 26.7162 92.3351 28.071 91.8594 29.602Z" fill="#F1EDD9"/>
<path d="M92.1615 25.695C91.7312 26.8134 91.4777 27.9921 91.4102 29.1886C91.9039 27.7571 92.7395 26.4676 93.8444 25.432C93.4117 25.4016 92.9774 25.4016 92.5446 25.432C92.4621 25.4439 92.3833 25.4744 92.3143 25.5212C92.2453 25.5681 92.1879 25.6301 92.1464 25.7025" fill="#F1EDD9"/>
<path d="M89.9375 26.2209C90.3676 27.147 90.6879 28.1203 90.8917 29.1209C91.1396 27.9188 91.4026 25.5146 91.4026 25.5146L89.9375 26.2209Z" fill="#F1EDD9"/>
<path d="M103.881 32.6073C103.881 32.6073 105.174 31.7508 105.963 31.3075L106.188 31.2023C105.813 30.1796 105.199 29.2611 104.399 28.5228C103.598 27.7846 102.632 27.2479 101.582 26.9574C101.065 26.8228 100.522 26.8228 100.005 26.9574C99.5358 27.1157 99.0947 27.3464 98.6973 27.6411C100.718 28.2797 102.747 30.5637 103.881 32.6373V32.6073ZM105.331 30.9995L104.077 31.7057C103.838 31.2884 103.559 30.8958 103.243 30.5337L104.565 29.8199C104.884 30.1653 105.138 30.5647 105.316 30.9995" fill="#F1EDD9"/>
<path d="M106.654 13.6286C107.105 14.1019 107.525 13.7638 107.465 13.3957C106.609 13.2153 105.963 12.0057 105.557 9.99219L104.535 10.3904C105.241 11.1943 106.038 12.9449 106.654 13.6286Z" fill="#F1EDD9"/>
<path d="M77.3829 35.5444L77.2701 35.4768C77.0069 35.3765 76.7242 35.3379 76.4437 35.3641C76.0376 35.3886 75.6421 35.5042 75.2867 35.7022C75.2175 35.7331 75.1441 35.7534 75.0688 35.7623C74.3834 35.8533 73.7053 35.9939 73.0402 36.1831C72.7773 36.2582 72.5143 36.3558 72.2889 36.446C72.2882 36.4585 72.2882 36.4711 72.2889 36.4836H72.4242H72.5744L74.3175 36.0854C74.573 36.0253 74.8284 35.9877 75.0688 35.9502C75.1483 35.9355 75.2298 35.9355 75.3092 35.9502C75.878 36.1535 76.5023 36.1375 77.0598 35.9051L77.18 35.8374C76.7442 35.7623 76.3311 35.7848 75.9329 35.7322C76.173 35.6419 76.4276 35.5961 76.6842 35.597C76.9246 35.597 77.1725 35.597 77.4355 35.597L77.3829 35.5444ZM80.3356 34.8457C80.6641 34.8937 80.9864 34.9768 81.2972 35.0937C81.3426 35.1131 81.3908 35.1258 81.44 35.1312C81.2783 34.978 81.0899 34.8557 80.884 34.7706C80.4909 34.6033 80.0584 34.5512 79.6368 34.6203C79.5797 34.6315 79.5211 34.6315 79.464 34.6203C78.8493 34.4979 78.2266 34.4201 77.6008 34.3874C77.3255 34.3725 77.0496 34.3725 76.7743 34.3874H76.6691H77.2626C77.9528 34.4149 78.6406 34.4877 79.3213 34.6053C79.406 34.6194 79.4845 34.6587 79.5466 34.718C79.9153 35.0778 80.4065 35.2846 80.9215 35.2965C81.0689 35.3111 81.2175 35.3111 81.3649 35.2965C80.9819 35.091 80.5792 34.9249 80.1628 34.8006C80.1674 34.7885 80.1674 34.7752 80.1628 34.7631H80.3205L80.3356 34.8457ZM82.9652 35.2289C82.9676 35.2114 82.9676 35.1937 82.9652 35.1763C82.6485 34.7859 82.2041 34.5198 81.7104 34.425C81.648 34.4176 81.585 34.4176 81.5226 34.425C81.3581 34.4249 81.1951 34.3943 81.0417 34.3348C80.4773 34.1415 79.8875 34.0326 79.2912 34.0118C79.2115 34.0007 79.1305 34.0007 79.0507 34.0118L79.4565 34.0869C79.9894 34.1707 80.5164 34.2886 81.0342 34.44C81.1267 34.4664 81.2084 34.5217 81.2672 34.5978C81.5672 34.9924 82.0041 35.2605 82.4918 35.3491H82.6947C82.4089 35.1047 82.1077 34.8788 81.7931 34.6729C82.2083 34.8068 82.6067 34.9883 82.9802 35.2138L82.9652 35.2289ZM82.3791 35.597C82.1459 35.5638 81.9083 35.5816 81.6826 35.649C81.457 35.7165 81.2486 35.832 81.0718 35.9877C80.9867 36.0657 80.9087 36.1512 80.8389 36.2431C80.7852 36.3113 80.7117 36.3611 80.6286 36.3859L79.126 36.9344L78.7728 37.0846V37.1222L78.9231 37.0846L80.6361 36.5437C80.736 36.5135 80.8397 36.4983 80.9441 36.4986C81.2293 36.4978 81.5129 36.4547 81.7855 36.3709C82.0697 36.2843 82.3127 36.0974 82.4693 35.845C82.1496 35.9633 81.8234 36.0636 81.4925 36.1455C81.7705 35.9276 82.1011 35.7999 82.3791 35.597ZM79.3739 36.5061C79.6392 36.5004 79.9001 36.4361 80.1377 36.3179C80.3754 36.1997 80.584 36.0305 80.7487 35.8224C80.3743 35.9285 80.0057 36.0539 79.6443 36.1981C79.969 35.9214 80.3306 35.6913 80.7187 35.5144C80.6166 35.4989 80.5128 35.4989 80.4107 35.5144C80.156 35.5433 79.9102 35.625 79.689 35.7544C79.4677 35.8838 79.276 36.0579 79.126 36.2657C79.0056 36.424 78.8481 36.5504 78.6676 36.6338C78.0741 36.9155 77.5017 37.2394 76.9546 37.603L77.2777 37.4528L78.4873 36.8217L78.9681 36.6038C79.0998 36.5509 79.2396 36.5204 79.3814 36.5136L79.3739 36.5061ZM76.9922 36.4535C76.6939 36.6259 76.3726 36.7549 76.038 36.8367L76.9771 36.153C76.8403 36.1303 76.7 36.1459 76.5715 36.1981C76.2888 36.2788 76.0306 36.4285 75.8202 36.6338C75.7129 36.7297 75.6148 36.8353 75.5271 36.9494C75.4299 37.0773 75.3038 37.1803 75.159 37.2499C74.5504 37.5279 73.9869 37.8735 73.4084 38.2041C73.3193 38.2549 73.2362 38.3153 73.1605 38.3844L73.2957 38.3243L75.0764 37.4377H75.1214C75.3533 37.307 75.6085 37.2227 75.8727 37.1898C76.1056 37.1611 76.3295 37.0825 76.5292 36.9593C76.7289 36.8361 76.8996 36.6713 77.0298 36.476L76.9922 36.4535ZM77.5481 36.7315L78.0515 36.6113C78.298 36.5453 78.5215 36.4127 78.6977 36.2281L78.9907 35.89L77.9163 36.3934C78.0688 36.2446 78.2377 36.1135 78.4197 36.0027L78.9982 35.6496C78.8108 35.6378 78.6228 35.6581 78.4422 35.7097C78.1984 35.7734 77.9721 35.8917 77.7808 36.0557C77.5894 36.2197 77.438 36.4251 77.3378 36.6564C77.3041 36.7224 77.2518 36.7772 77.1875 36.8141L75.8501 37.6932L75.6774 37.8209L76.0155 37.6406L77.3153 36.8442C77.3909 36.8032 77.4717 36.7728 77.5556 36.754L77.5481 36.7315ZM73.9043 37.1898C74.208 37.2787 74.5309 37.2785 74.8346 37.1893C75.1383 37.1001 75.4099 36.9255 75.6173 36.6864C75.6173 36.6864 75.6173 36.6864 75.6173 36.6263C75.2041 36.6939 74.8134 36.7615 74.4227 36.8517C74.7899 36.6249 75.1869 36.4504 75.6022 36.3333C75.3558 36.2697 75.0973 36.2697 74.8509 36.3333C74.431 36.4264 74.0442 36.6316 73.7315 36.9269C73.6842 36.9729 73.6279 37.0087 73.5662 37.0321C72.9317 37.2587 72.3119 37.5247 71.7105 37.8284L71.0718 38.1891L71.2071 38.144L72.3566 37.6331L73.5512 37.1522C73.6382 37.1187 73.7346 37.1187 73.8216 37.1522L73.9043 37.1898ZM64.34 29.8119C65.2566 29.872 66.1733 29.9246 67.0899 29.9997C67.4881 29.9997 67.8862 30.0899 68.2769 30.1575C68.403 30.1774 68.5219 30.2291 68.6225 30.3078C69.3656 30.8724 70.2924 31.1403 71.2221 31.0591L71.425 31.0215C70.8164 30.7135 70.2078 30.5632 69.6368 30.2702C70.0142 30.2424 70.3935 30.2831 70.7563 30.3904C71.1169 30.4655 71.5076 30.5783 71.8758 30.6834C71.8318 30.63 71.7841 30.5798 71.733 30.5332C71.3909 30.2668 70.9927 30.0817 70.5685 29.9922C69.9577 29.8533 69.3234 29.8533 68.7127 29.9922C68.596 30.0147 68.4762 30.0147 68.3596 29.9922C67.3105 29.8235 66.2513 29.7257 65.189 29.6992C64.7608 29.6992 64.3326 29.6992 63.9043 29.7368C63.9006 29.7566 63.9006 29.777 63.9043 29.7969H64.1072H64.3476L64.34 29.8119ZM72.1462 28.9178C73.1507 29.2684 74.1319 29.6824 75.0839 30.1575C75.2043 30.2166 75.3039 30.3109 75.3694 30.428C75.7393 31.1372 76.3693 31.6757 77.1274 31.9306C77.3455 32.0017 77.5692 32.0545 77.7961 32.0884C77.3438 31.6108 76.8399 31.1849 76.2935 30.8187C76.2921 30.8012 76.2921 30.7836 76.2935 30.7661C76.3709 30.787 76.4463 30.8146 76.5188 30.8487C76.987 31.0569 77.4263 31.3246 77.8261 31.6451C77.8855 31.6938 77.9512 31.7343 78.0215 31.7653C77.8502 31.4756 77.6259 31.2208 77.3603 31.014C76.855 30.5962 76.2388 30.3351 75.5872 30.2627C75.5012 30.2466 75.4178 30.2187 75.3393 30.18C74.4909 29.7143 73.6065 29.3174 72.6947 28.993C72.2965 28.8502 71.8757 28.7751 71.4625 28.6699H71.3047C71.3089 28.6847 71.3089 28.7003 71.3047 28.715C71.5902 28.8277 71.8758 28.9404 72.1613 29.0381L72.1462 28.9178ZM69.6744 29.4588C70.3656 29.6015 71.0492 29.7818 71.7254 29.9546C71.8472 29.989 71.9584 30.0536 72.0485 30.1425C72.4658 30.5533 72.9547 30.8843 73.4911 31.1192C73.9474 31.2928 74.425 31.404 74.911 31.4497C74.363 31.044 73.7854 30.6799 73.183 30.3604C73.324 30.3324 73.47 30.3454 73.6037 30.3979C74.1258 30.5853 74.6289 30.8218 75.1063 31.1042C75.157 31.1323 75.2138 31.1477 75.2717 31.1493C75.2257 31.0882 75.1754 31.0305 75.1214 30.9765C74.7219 30.5944 74.2507 30.2953 73.7348 30.0967C73.2189 29.8981 72.6687 29.8038 72.1161 29.8194C72.0065 29.8346 71.8953 29.8346 71.7856 29.8194C70.7713 29.5865 69.757 29.3236 68.7803 29.1282C68.1492 29.0005 67.4955 28.978 66.8494 28.9103C66.8097 28.9032 66.769 28.9032 66.7293 28.9103V28.9479L67.3152 29.0531C68.0665 29.2033 68.8855 29.3461 69.6668 29.5189L69.6744 29.4588ZM77.6684 30.8262C77.792 30.9089 77.8845 31.0305 77.9313 31.1718C78.208 31.8967 78.7433 32.4936 79.4339 32.8472L79.7119 32.9749V32.9374C79.4027 32.4494 79.0613 31.9826 78.6901 31.5399C79.2422 31.9246 79.7467 32.3735 80.1928 32.8773C80.1928 32.8397 80.1928 32.8021 80.1928 32.7721C79.9022 32.0557 79.3708 31.4632 78.6901 31.0967C78.6075 31.0484 78.5192 31.0105 78.4272 30.9839C78.1799 30.9178 77.9494 30.8001 77.751 30.6384C77.0041 30.099 76.1812 29.6736 75.3092 29.3762C75.1953 29.3372 75.0764 29.3144 74.9561 29.3085L75.5121 29.6015C76.2593 29.9668 76.9843 30.3757 77.6834 30.8262H77.6684ZM77.6158 33.5685C78.1192 33.3731 78.6601 33.3356 79.1635 33.1628C78.8356 33.0087 78.4777 32.9288 78.1154 32.9288C77.7531 32.9288 77.3953 33.0087 77.0674 33.1628C76.9072 33.2368 76.7537 33.3248 76.609 33.4257C76.4998 33.5057 76.3687 33.5504 76.2333 33.5535C75.4069 33.5535 74.573 33.6286 73.7465 33.6737C73.5512 33.6737 73.3558 33.7188 73.1605 33.7413V33.8014H73.3934C74.3251 33.8014 75.2491 33.8014 76.1732 33.8014C76.3337 33.7974 76.4937 33.8203 76.6466 33.869C77.0654 33.9973 77.5008 34.0631 77.9388 34.0644C78.4001 34.066 78.8452 33.8944 79.186 33.5835C78.6633 33.621 78.1385 33.621 77.6158 33.5835V33.5685ZM73.6488 33.1102C73.8631 33.0868 74.0799 33.1047 74.2874 33.1628C74.6818 33.2722 75.0954 33.294 75.4991 33.2265C75.9027 33.159 76.2867 33.0039 76.624 32.7721C76.624 32.7721 76.6241 32.7721 76.6616 32.712C76.0623 32.7044 75.463 32.7269 74.866 32.7796C75.4691 32.5158 76.1065 32.3387 76.7593 32.2537C76.613 32.1907 76.4588 32.1477 76.301 32.1259C75.9126 32.0432 75.5111 32.0432 75.1228 32.1261C74.7344 32.2089 74.3679 32.3727 74.0471 32.6068C73.8011 32.7915 73.5109 32.9081 73.2056 32.9449C72.2019 33.0946 71.2101 33.3156 70.2378 33.6061C70.218 33.602 70.1976 33.602 70.1778 33.6061L70.7187 33.5234L72.7923 33.1477C73.0628 33.1026 73.3332 33.0726 73.6037 33.0426L73.6488 33.1102ZM68.7202 32.4565C69.0774 32.5194 69.444 32.5049 69.7952 32.4142C70.1464 32.3235 70.4742 32.1586 70.7563 31.9306C70.2358 32.0429 69.7031 32.0884 69.171 32.0658L70.869 31.4798C70.6713 31.3899 70.4548 31.3487 70.2378 31.3596C69.7814 31.3491 69.3296 31.4524 68.923 31.6601C68.7172 31.7536 68.5209 31.8668 68.337 31.9982C68.1383 32.1445 67.9056 32.2375 67.6609 32.2687C66.6466 32.4039 65.6549 32.6594 64.6556 32.8923C64.5002 32.9253 64.3489 32.9757 64.2048 33.0426H64.4377L67.443 32.5316H67.5106C67.903 32.4602 68.3052 32.4602 68.6977 32.5316L68.7202 32.4565ZM71.3799 32.6143L72.1312 32.6594C72.5259 32.6785 72.9176 32.5819 73.2581 32.3814L73.8517 32.0208L72.0485 32.2687C72.0485 32.2687 72.0485 32.2687 72.0485 32.2236C72.3372 32.0678 72.6454 31.9515 72.9651 31.878L73.9794 31.6151C73.709 31.5081 73.4212 31.4521 73.1304 31.4497C72.7417 31.4311 72.3539 31.502 71.997 31.657C71.6401 31.812 71.3235 32.047 71.0718 32.3438C70.9963 32.4289 70.8967 32.4892 70.7863 32.5166L68.4197 33.2078L68.1041 33.3206V33.3656C68.292 33.3656 68.4873 33.3055 68.6751 33.2529L70.9291 32.6744C71.0609 32.6521 71.1955 32.6521 71.3273 32.6744L71.3799 32.6143ZM65.7525 31.6677C66.1622 31.9326 66.6396 32.0735 67.1274 32.0735C67.6152 32.0735 68.0927 31.9326 68.5024 31.6677L68.5699 31.5925C67.9313 31.4948 67.3228 31.4272 66.6992 31.3822C67.3451 31.2202 68.0092 31.142 68.6751 31.1493C68.3474 30.9702 67.9816 30.8723 67.6082 30.8637C66.9498 30.8138 66.2903 30.9436 65.7 31.2394C65.6063 31.2848 65.5035 31.3079 65.3994 31.307C64.3616 31.3644 63.3281 31.4824 62.304 31.6601L61.207 31.9006C61.2107 31.9204 61.2107 31.9408 61.207 31.9607C61.2796 31.9647 61.3524 31.9647 61.4249 31.9607C62.0711 31.8856 62.7097 31.7879 63.3559 31.7203C64.002 31.6526 64.6781 31.6075 65.3393 31.5474C65.4817 31.5318 65.6252 31.5663 65.745 31.6451L65.7525 31.6677ZM87.1199 36.153L80.8539 33.3957L80.1026 33.5009L85.8201 36.1455C84.9445 35.9529 84.0493 35.8646 83.153 35.8825L82.8148 36.3859C82.8148 36.3859 83.4084 36.3859 84.2424 36.4986C85.0849 36.5949 85.9156 36.7761 86.7217 37.0395H88.3371L87.1199 36.153Z" fill="#F1EDD9"/>
</svg>
